<?xml version="1.0" encoding="utf-8"?>
<svg width="240" height="240" id="svg2" version="1.1" xmlns="http://www.w3.org/2000/svg">
  <defs id="defs4">
    <path style="fill:#ffff00;fill-opacity:1;stroke:none" id="path5961-5" d="m -164.23428,154.97578 a 7.5141668,6.4024758 0 1 1 -15.02833,0 7.5141668,6.4024758 0 1 1 15.02833,0 z" transform="matrix(0.99811465,0,0,1.1714218,-0.25690232,784.99685)"/>
  </defs>
  <g id="layer1" transform="translate(0,-812.36218)">
    <g id="g5120" transform="translate(469.14063,-108.20313)">
      <g id="g5116">
        <path style="fill:#6ea3e2;fill-opacity:1;stroke:none" d="m -349.14063,985.56531 c -42.80207,0 -77.5,24.62429 -77.5,54.99999 l 155,0 c 0,-30.3757 -34.69793,-54.99999 -77.5,-54.99999 z" id="path3786"/>
        <path style="fill:#66411a;fill-opacity:1;stroke:none" d="m -349.14063,1095.5653 c -42.80207,0 -77.5,-24.6243 -77.5,-55 l 155,0 c 0,30.3757 -34.69793,55 -77.5,55 z" id="path3786-8"/>
      </g>
      <g transform="translate(301.85937,151.01563)" id="g4803">
        <rect style="fill:#ffffff;fill-opacity:1;stroke:none" id="rect6868" width="154" height="2" x="-728" y="888.93256"/>
        <rect style="fill:#ffffff;fill-opacity:1;stroke:none" id="rect6868-2-6" width="40" height="2" x="-671" y="-856.93256" transform="scale(1,-1)"/>
        <rect style="fill:#ffffff;fill-opacity:1;stroke:none" id="rect6868-2-8-8" width="30" height="2" x="-666" y="-873.93256" transform="scale(1,-1)"/>
        <rect style="fill:#ffffff;fill-opacity:1;stroke:none" id="rect6868-2-6-7" width="15" height="2" x="-658.5" y="-882.43256" transform="scale(1,-1)"/>
        <rect style="fill:#ffffff;fill-opacity:1;stroke:none" id="rect6868-2-6-7-5" width="15" height="2" x="-658.5" y="-865.43256" transform="scale(1,-1)"/>
        <rect style="fill:#ffffff;fill-opacity:1;stroke:none" id="rect6868-2-6-4" width="40" height="2" x="-671" y="922.93256"/>
        <rect style="fill:#ffffff;fill-opacity:1;stroke:none" id="rect6868-2-8-8-7" width="30" height="2" x="-666" y="905.93256"/>
        <rect style="fill:#ffffff;fill-opacity:1;stroke:none" id="rect6868-2-6-7-6" width="15" height="2" x="-658.5" y="897.43256"/>
        <rect style="fill:#ffffff;fill-opacity:1;stroke:none" id="rect6868-2-6-7-5-7" width="15" height="2" x="-658.5" y="914.43256"/>
        <g style="font-size:12px;font-style:normal;font-variant:normal;font-weight:normal;font-stretch:normal;fill:#ffffff;fill-opacity:1;stroke:none;font-family:Sans;-inkscape-font-specification:Sans" id="text7061" transform="translate(-726.00031,-312.42961)">
          <path d="m 44.739258,1187.7035 1.660156,0 0,-4.7119 -1.704102,0.3515 0,-1.2793 1.694336,-0.3515 1.78711,0 0,5.9912 1.660156,0 0,1.2988 -5.097656,0 0,-1.2988" style="font-size:10px;font-weight:bold;text-align:center;text-anchor:middle;fill:#ffffff;fill-opacity:1;-inkscape-font-specification:Andale Mono Bold" id="path7103"/>
          <path d="m 55.120117,1185.35 c -4e-6,-0.9115 -0.08627,-1.5528 -0.258789,-1.9239 -0.169275,-0.3743 -0.455733,-0.5615 -0.859375,-0.5615 -0.403649,0 -0.691734,0.1872 -0.864258,0.5615 -0.172528,0.3711 -0.258791,1.0124 -0.258789,1.9239 -2e-6,0.9212 0.08626,1.5706 0.258789,1.9482 0.172524,0.3776 0.460609,0.5664 0.864258,0.5664 0.400387,0 0.686845,-0.1888 0.859375,-0.5664 0.172522,-0.3776 0.258785,-1.027 0.258789,-1.9482 M 57,1185.3646 c -6e-6,1.2077 -0.260423,2.1403 -0.78125,2.7979 -0.520839,0.6543 -1.25977,0.9814 -2.216797,0.9814 -0.960289,0 -1.700848,-0.3271 -2.22168,-0.9814 -0.520834,-0.6576 -0.78125,-1.5902 -0.78125,-2.7979 0,-1.2109 0.260416,-2.1435 0.78125,-2.7978 0.520832,-0.6576 1.261391,-0.9863 2.22168,-0.9864 0.957027,10e-5 1.695958,0.3288 2.216797,0.9864 0.520827,0.6543 0.781244,1.5869 0.78125,2.7978" style="font-size:10px;font-weight:bold;text-align:center;text-anchor:middle;fill:#ffffff;fill-opacity:1;-inkscape-font-specification:Andale Mono Bold" id="path7105"/>
        </g>
        <g style="font-size:12px;font-style:normal;font-variant:normal;font-weight:normal;font-stretch:normal;fill:#ffffff;fill-opacity:1;stroke:none;font-family:Sans;-inkscape-font-specification:Sans" id="text7061-9" transform="translate(-731,-312.42961)">
          <path d="m 46.448242,1170.6205 3.208008,0 0,1.3818 -5.297852,0 0,-1.3818 2.661133,-2.3486 c 0.237627,-0.2149 0.413408,-0.4248 0.527344,-0.6299 0.113928,-0.2051 0.170894,-0.4183 0.170898,-0.6397 -4e-6,-0.3418 -0.115563,-0.6168 -0.346679,-0.8252 -0.227868,-0.2083 -0.53223,-0.3125 -0.913086,-0.3125 -0.292972,0 -0.613609,0.063 -0.961914,0.1905 -0.348309,0.1237 -0.72103,0.3092 -1.118164,0.5566 l 0,-1.6016 c 0.423176,-0.1399 0.841469,-0.2457 1.254882,-0.3174 0.413409,-0.075 0.818683,-0.1122 1.215821,-0.1123 0.872391,10e-5 1.549474,0.1921 2.03125,0.5762 0.48502,0.3841 0.727533,0.9196 0.727539,1.6065 -6e-6,0.3971 -0.102545,0.7682 -0.307617,1.1132 -0.205084,0.3418 -0.636399,0.8008 -1.293946,1.377 l -1.557617,1.3672" style="font-size:10px;font-weight:bold;text-align:center;text-anchor:middle;fill:#ffffff;fill-opacity:1;-inkscape-font-specification:Andale Mono Bold" id="path7098"/>
          <path d="m 55.120117,1168.35 c -4e-6,-0.9115 -0.08627,-1.5528 -0.258789,-1.9239 -0.169275,-0.3743 -0.455733,-0.5615 -0.859375,-0.5615 -0.403649,0 -0.691734,0.1872 -0.864258,0.5615 -0.172528,0.3711 -0.258791,1.0124 -0.258789,1.9239 -2e-6,0.9212 0.08626,1.5706 0.258789,1.9482 0.172524,0.3776 0.460609,0.5664 0.864258,0.5664 0.400387,0 0.686845,-0.1888 0.859375,-0.5664 0.172522,-0.3776 0.258785,-1.027 0.258789,-1.9482 M 57,1168.3646 c -6e-6,1.2077 -0.260423,2.1403 -0.78125,2.7979 -0.520839,0.6543 -1.25977,0.9814 -2.216797,0.9814 -0.960289,0 -1.700848,-0.3271 -2.22168,-0.9814 -0.520834,-0.6576 -0.78125,-1.5902 -0.78125,-2.7979 0,-1.2109 0.260416,-2.1435 0.78125,-2.7978 0.520832,-0.6576 1.261391,-0.9863 2.22168,-0.9864 0.957027,10e-5 1.695958,0.3288 2.216797,0.9864 0.520827,0.6543 0.781244,1.5869 0.78125,2.7978" style="font-size:10px;font-weight:bold;text-align:center;text-anchor:middle;fill:#ffffff;fill-opacity:1;-inkscape-font-specification:Andale Mono Bold" id="path7100"/>
        </g>
        <g style="font-size:12px;font-style:normal;font-variant:normal;font-weight:normal;font-stretch:normal;fill:#ffffff;fill-opacity:1;stroke:none;font-family:Sans;-inkscape-font-specification:Sans" id="text7061-0" transform="translate(-677.69531,-312.42961)">
          <path d="m 44.739258,1187.7035 1.660156,0 0,-4.7119 -1.704102,0.3515 0,-1.2793 1.694336,-0.3515 1.78711,0 0,5.9912 1.660156,0 0,1.2988 -5.097656,0 0,-1.2988" style="font-size:10px;font-weight:bold;text-align:center;text-anchor:middle;fill:#ffffff;fill-opacity:1;-inkscape-font-specification:Andale Mono Bold" id="path7103-0"/>
          <path d="m 55.120117,1185.35 c -4e-6,-0.9115 -0.08627,-1.5528 -0.258789,-1.9239 -0.169275,-0.3743 -0.455733,-0.5615 -0.859375,-0.5615 -0.403649,0 -0.691734,0.1872 -0.864258,0.5615 -0.172528,0.3711 -0.258791,1.0124 -0.258789,1.9239 -2e-6,0.9212 0.08626,1.5706 0.258789,1.9482 0.172524,0.3776 0.460609,0.5664 0.864258,0.5664 0.400387,0 0.686845,-0.1888 0.859375,-0.5664 0.172522,-0.3776 0.258785,-1.027 0.258789,-1.9482 M 57,1185.3646 c -6e-6,1.2077 -0.260423,2.1403 -0.78125,2.7979 -0.520839,0.6543 -1.25977,0.9814 -2.216797,0.9814 -0.960289,0 -1.700848,-0.3271 -2.22168,-0.9814 -0.520834,-0.6576 -0.78125,-1.5902 -0.78125,-2.7979 0,-1.2109 0.260416,-2.1435 0.78125,-2.7978 0.520832,-0.6576 1.261391,-0.9863 2.22168,-0.9864 0.957027,10e-5 1.695958,0.3288 2.216797,0.9864 0.520827,0.6543 0.781244,1.5869 0.78125,2.7978" style="font-size:10px;font-weight:bold;text-align:center;text-anchor:middle;fill:#ffffff;fill-opacity:1;-inkscape-font-specification:Andale Mono Bold" id="path7105-4"/>
        </g>
        <g style="font-size:12px;font-style:normal;font-variant:normal;font-weight:normal;font-stretch:normal;fill:#ffffff;fill-opacity:1;stroke:none;font-family:Sans;-inkscape-font-specification:Sans" id="text7061-9-3" transform="translate(-672.3584,-312.42961)">
          <path d="m 46.448242,1170.6205 3.208008,0 0,1.3818 -5.297852,0 0,-1.3818 2.661133,-2.3486 c 0.237627,-0.2149 0.413408,-0.4248 0.527344,-0.6299 0.113928,-0.2051 0.170894,-0.4183 0.170898,-0.6397 -4e-6,-0.3418 -0.115563,-0.6168 -0.346679,-0.8252 -0.227868,-0.2083 -0.53223,-0.3125 -0.913086,-0.3125 -0.292972,0 -0.613609,0.063 -0.961914,0.1905 -0.348309,0.1237 -0.72103,0.3092 -1.118164,0.5566 l 0,-1.6016 c 0.423176,-0.1399 0.841469,-0.2457 1.254882,-0.3174 0.413409,-0.075 0.818683,-0.1122 1.215821,-0.1123 0.872391,10e-5 1.549474,0.1921 2.03125,0.5762 0.48502,0.3841 0.727533,0.9196 0.727539,1.6065 -6e-6,0.3971 -0.102545,0.7682 -0.307617,1.1132 -0.205084,0.3418 -0.636399,0.8008 -1.293946,1.377 l -1.557617,1.3672" style="font-size:10px;font-weight:bold;text-align:center;text-anchor:middle;fill:#ffffff;fill-opacity:1;-inkscape-font-specification:Andale Mono Bold" id="path7098-2"/>
          <path d="m 55.120117,1168.35 c -4e-6,-0.9115 -0.08627,-1.5528 -0.258789,-1.9239 -0.169275,-0.3743 -0.455733,-0.5615 -0.859375,-0.5615 -0.403649,0 -0.691734,0.1872 -0.864258,0.5615 -0.172528,0.3711 -0.258791,1.0124 -0.258789,1.9239 -2e-6,0.9212 0.08626,1.5706 0.258789,1.9482 0.172524,0.3776 0.460609,0.5664 0.864258,0.5664 0.400387,0 0.686845,-0.1888 0.859375,-0.5664 0.172522,-0.3776 0.258785,-1.027 0.258789,-1.9482 M 57,1168.3646 c -6e-6,1.2077 -0.260423,2.1403 -0.78125,2.7979 -0.520839,0.6543 -1.25977,0.9814 -2.216797,0.9814 -0.960289,0 -1.700848,-0.3271 -2.22168,-0.9814 -0.520834,-0.6576 -0.78125,-1.5902 -0.78125,-2.7979 0,-1.2109 0.260416,-2.1435 0.78125,-2.7978 0.520832,-0.6576 1.261391,-0.9863 2.22168,-0.9864 0.957027,10e-5 1.695958,0.3288 2.216797,0.9864 0.520827,0.6543 0.781244,1.5869 0.78125,2.7978" style="font-size:10px;font-weight:bold;text-align:center;text-anchor:middle;fill:#ffffff;fill-opacity:1;-inkscape-font-specification:Andale Mono Bold" id="path7100-0"/>
        </g>
        <g style="font-size:12px;font-style:normal;font-variant:normal;font-weight:normal;font-stretch:normal;fill:#ffffff;fill-opacity:1;stroke:none;font-family:Sans;-inkscape-font-specification:Sans" id="text7061-4" transform="translate(-726.00031,-278.42951)">
          <path d="m 44.739258,1187.7035 1.660156,0 0,-4.7119 -1.704102,0.3515 0,-1.2793 1.694336,-0.3515 1.78711,0 0,5.9912 1.660156,0 0,1.2988 -5.097656,0 0,-1.2988" style="font-size:10px;font-weight:bold;text-align:center;text-anchor:middle;fill:#ffffff;fill-opacity:1;-inkscape-font-specification:Andale Mono Bold" id="path7103-7"/>
          <path d="m 55.120117,1185.35 c -4e-6,-0.9115 -0.08627,-1.5528 -0.258789,-1.9239 -0.169275,-0.3743 -0.455733,-0.5615 -0.859375,-0.5615 -0.403649,0 -0.691734,0.1872 -0.864258,0.5615 -0.172528,0.3711 -0.258791,1.0124 -0.258789,1.9239 -2e-6,0.9212 0.08626,1.5706 0.258789,1.9482 0.172524,0.3776 0.460609,0.5664 0.864258,0.5664 0.400387,0 0.686845,-0.1888 0.859375,-0.5664 0.172522,-0.3776 0.258785,-1.027 0.258789,-1.9482 M 57,1185.3646 c -6e-6,1.2077 -0.260423,2.1403 -0.78125,2.7979 -0.520839,0.6543 -1.25977,0.9814 -2.216797,0.9814 -0.960289,0 -1.700848,-0.3271 -2.22168,-0.9814 -0.520834,-0.6576 -0.78125,-1.5902 -0.78125,-2.7979 0,-1.2109 0.260416,-2.1435 0.78125,-2.7978 0.520832,-0.6576 1.261391,-0.9863 2.22168,-0.9864 0.957027,10e-5 1.695958,0.3288 2.216797,0.9864 0.520827,0.6543 0.781244,1.5869 0.78125,2.7978" style="font-size:10px;font-weight:bold;text-align:center;text-anchor:middle;fill:#ffffff;fill-opacity:1;-inkscape-font-specification:Andale Mono Bold" id="path7105-9"/>
        </g>
        <g style="font-size:12px;font-style:normal;font-variant:normal;font-weight:normal;font-stretch:normal;fill:#ffffff;fill-opacity:1;stroke:none;font-family:Sans;-inkscape-font-specification:Sans" id="text7061-9-0" transform="translate(-731,-244.42951)">
          <path d="m 46.448242,1170.6205 3.208008,0 0,1.3818 -5.297852,0 0,-1.3818 2.661133,-2.3486 c 0.237627,-0.2149 0.413408,-0.4248 0.527344,-0.6299 0.113928,-0.2051 0.170894,-0.4183 0.170898,-0.6397 -4e-6,-0.3418 -0.115563,-0.6168 -0.346679,-0.8252 -0.227868,-0.2083 -0.53223,-0.3125 -0.913086,-0.3125 -0.292972,0 -0.613609,0.063 -0.961914,0.1905 -0.348309,0.1237 -0.72103,0.3092 -1.118164,0.5566 l 0,-1.6016 c 0.423176,-0.1399 0.841469,-0.2457 1.254882,-0.3174 0.413409,-0.075 0.818683,-0.1122 1.215821,-0.1123 0.872391,10e-5 1.549474,0.1921 2.03125,0.5762 0.48502,0.3841 0.727533,0.9196 0.727539,1.6065 -6e-6,0.3971 -0.102545,0.7682 -0.307617,1.1132 -0.205084,0.3418 -0.636399,0.8008 -1.293946,1.377 l -1.557617,1.3672" style="font-size:10px;font-weight:bold;text-align:center;text-anchor:middle;fill:#ffffff;fill-opacity:1;-inkscape-font-specification:Andale Mono Bold" id="path7098-4"/>
          <path d="m 55.120117,1168.35 c -4e-6,-0.9115 -0.08627,-1.5528 -0.258789,-1.9239 -0.169275,-0.3743 -0.455733,-0.5615 -0.859375,-0.5615 -0.403649,0 -0.691734,0.1872 -0.864258,0.5615 -0.172528,0.3711 -0.258791,1.0124 -0.258789,1.9239 -2e-6,0.9212 0.08626,1.5706 0.258789,1.9482 0.172524,0.3776 0.460609,0.5664 0.864258,0.5664 0.400387,0 0.686845,-0.1888 0.859375,-0.5664 0.172522,-0.3776 0.258785,-1.027 0.258789,-1.9482 M 57,1168.3646 c -6e-6,1.2077 -0.260423,2.1403 -0.78125,2.7979 -0.520839,0.6543 -1.25977,0.9814 -2.216797,0.9814 -0.960289,0 -1.700848,-0.3271 -2.22168,-0.9814 -0.520834,-0.6576 -0.78125,-1.5902 -0.78125,-2.7979 0,-1.2109 0.260416,-2.1435 0.78125,-2.7978 0.520832,-0.6576 1.261391,-0.9863 2.22168,-0.9864 0.957027,10e-5 1.695958,0.3288 2.216797,0.9864 0.520827,0.6543 0.781244,1.5869 0.78125,2.7978" style="font-size:10px;font-weight:bold;text-align:center;text-anchor:middle;fill:#ffffff;fill-opacity:1;-inkscape-font-specification:Andale Mono Bold" id="path7100-6"/>
        </g>
        <g style="font-size:12px;font-style:normal;font-variant:normal;font-weight:normal;font-stretch:normal;fill:#ffffff;fill-opacity:1;stroke:none;font-family:Sans;-inkscape-font-specification:Sans" id="text7061-4-7" transform="translate(-677.69531,-278.42951)">
          <path d="m 44.739258,1187.7035 1.660156,0 0,-4.7119 -1.704102,0.3515 0,-1.2793 1.694336,-0.3515 1.78711,0 0,5.9912 1.660156,0 0,1.2988 -5.097656,0 0,-1.2988" style="font-size:10px;font-weight:bold;text-align:center;text-anchor:middle;fill:#ffffff;fill-opacity:1;-inkscape-font-specification:Andale Mono Bold" id="path7103-7-3"/>
          <path d="m 55.120117,1185.35 c -4e-6,-0.9115 -0.08627,-1.5528 -0.258789,-1.9239 -0.169275,-0.3743 -0.455733,-0.5615 -0.859375,-0.5615 -0.403649,0 -0.691734,0.1872 -0.864258,0.5615 -0.172528,0.3711 -0.258791,1.0124 -0.258789,1.9239 -2e-6,0.9212 0.08626,1.5706 0.258789,1.9482 0.172524,0.3776 0.460609,0.5664 0.864258,0.5664 0.400387,0 0.686845,-0.1888 0.859375,-0.5664 0.172522,-0.3776 0.258785,-1.027 0.258789,-1.9482 M 57,1185.3646 c -6e-6,1.2077 -0.260423,2.1403 -0.78125,2.7979 -0.520839,0.6543 -1.25977,0.9814 -2.216797,0.9814 -0.960289,0 -1.700848,-0.3271 -2.22168,-0.9814 -0.520834,-0.6576 -0.78125,-1.5902 -0.78125,-2.7979 0,-1.2109 0.260416,-2.1435 0.78125,-2.7978 0.520832,-0.6576 1.261391,-0.9863 2.22168,-0.9864 0.957027,10e-5 1.695958,0.3288 2.216797,0.9864 0.520827,0.6543 0.781244,1.5869 0.78125,2.7978" style="font-size:10px;font-weight:bold;text-align:center;text-anchor:middle;fill:#ffffff;fill-opacity:1;-inkscape-font-specification:Andale Mono Bold" id="path7105-9-9"/>
        </g>
        <g style="font-size:12px;font-style:normal;font-variant:normal;font-weight:normal;font-stretch:normal;fill:#ffffff;fill-opacity:1;stroke:none;font-family:Sans;-inkscape-font-specification:Sans" id="text7061-9-0-0" transform="translate(-672.3584,-244.42951)">
          <path d="m 46.448242,1170.6205 3.208008,0 0,1.3818 -5.297852,0 0,-1.3818 2.661133,-2.3486 c 0.237627,-0.2149 0.413408,-0.4248 0.527344,-0.6299 0.113928,-0.2051 0.170894,-0.4183 0.170898,-0.6397 -4e-6,-0.3418 -0.115563,-0.6168 -0.346679,-0.8252 -0.227868,-0.2083 -0.53223,-0.3125 -0.913086,-0.3125 -0.292972,0 -0.613609,0.063 -0.961914,0.1905 -0.348309,0.1237 -0.72103,0.3092 -1.118164,0.5566 l 0,-1.6016 c 0.423176,-0.1399 0.841469,-0.2457 1.254882,-0.3174 0.413409,-0.075 0.818683,-0.1122 1.215821,-0.1123 0.872391,10e-5 1.549474,0.1921 2.03125,0.5762 0.48502,0.3841 0.727533,0.9196 0.727539,1.6065 -6e-6,0.3971 -0.102545,0.7682 -0.307617,1.1132 -0.205084,0.3418 -0.636399,0.8008 -1.293946,1.377 l -1.557617,1.3672" style="font-size:10px;font-weight:bold;text-align:center;text-anchor:middle;fill:#ffffff;fill-opacity:1;-inkscape-font-specification:Andale Mono Bold" id="path7098-4-9"/>
          <path d="m 55.120117,1168.35 c -4e-6,-0.9115 -0.08627,-1.5528 -0.258789,-1.9239 -0.169275,-0.3743 -0.455733,-0.5615 -0.859375,-0.5615 -0.403649,0 -0.691734,0.1872 -0.864258,0.5615 -0.172528,0.3711 -0.258791,1.0124 -0.258789,1.9239 -2e-6,0.9212 0.08626,1.5706 0.258789,1.9482 0.172524,0.3776 0.460609,0.5664 0.864258,0.5664 0.400387,0 0.686845,-0.1888 0.859375,-0.5664 0.172522,-0.3776 0.258785,-1.027 0.258789,-1.9482 M 57,1168.3646 c -6e-6,1.2077 -0.260423,2.1403 -0.78125,2.7979 -0.520839,0.6543 -1.25977,0.9814 -2.216797,0.9814 -0.960289,0 -1.700848,-0.3271 -2.22168,-0.9814 -0.520834,-0.6576 -0.78125,-1.5902 -0.78125,-2.7979 0,-1.2109 0.260416,-2.1435 0.78125,-2.7978 0.520832,-0.6576 1.261391,-0.9863 2.22168,-0.9864 0.957027,10e-5 1.695958,0.3288 2.216797,0.9864 0.520827,0.6543 0.781244,1.5869 0.78125,2.7978" style="font-size:10px;font-weight:bold;text-align:center;text-anchor:middle;fill:#ffffff;fill-opacity:1;-inkscape-font-specification:Andale Mono Bold" id="path7100-6-2"/>
        </g>
      </g>
    </g>
    <g id="g5249" transform="translate(-267.1875,-3.1250175)"/>
  </g>
</svg>