# File units = meters
mtllib Cambered Delta Wing - Part 4.mtl
g Part 4
v -0.0305182 -0.3 0.00873464 
v -0.0322299 -0.3 -0.00846109 
v -0.0312994 -0.3 -0.00865299 
v -0.0331342 -0.3 -0.00816942 
v -0.0348216 -0.3 -0.00730169 
v -0.0340015 -0.3 -0.00778143 
v -0.036396 -0.3 0.0059711 
v -0.0370057 -0.3 0.0052424 
v 0.028984 -0.3 0.00198042 
v 0.018629 -0.3 0.00384203 
v 0.023103 -0.3 -0.00307279 
v -0.0362823 -0.3 -0.00609059 
v -0.0355849 -0.3 -0.00673585 
v -0.0379017 -0.3 -0.00375849 
v -0.0374476 -0.3 -0.00459308 
v -0.038707 -0.3 0.000866711 
v -0.0387496 -0.3 -8.24656e-05 
v -0.0383154 -0.3 0.00272334 
v -0.0385617 -0.3 0.00180567 
v -0.0357108 -0.3 0.00662939 
v -0.0349584 -0.3 0.00720951 
v -0.032389 -0.3 0.00841755 
v -0.0332876 -0.3 0.0081089 
v -0.0314622 -0.3 0.00862696 
v 0.0309261 -0.3 -0.00169777 
v 0.0352508 -0.3 -0.0008886 
v 0.0284778 -0.3 -0.00215587 
v 0.0171405 -0.3 -0.00408995 
v 0.00888341 -0.3 0.00528551 
v 0.00138151 -0.3 0.0063874 
v 0.00693833 -0.3 -0.00563705 
v 6.58152e-05 -0.3 -0.00653503 
v -0.0369056 -0.3 -0.00537352 
v -0.0385261 -0.3 -0.00196672 
v -0.0382626 -0.3 -0.00287958 
v -0.0375328 -0.3 0.00445189 
v -0.0379711 -0.3 0.00360889 
v 0.0182635 -0.3 0.00390773 
v 0.015762 -0.3 -0.004299 
v 0.00825207 -0.3 -0.00543783 
v -0.000212825 -0.3 0.00656108 
v -0.0386891 -0.3 -0.00103067 
v -0.0341474 -0.3 0.00770463 
v -0.00868748 -0.3 0.00748427 
v -0.00439433 -0.3 -0.0070669 
v -0.00221152 -0.3 -0.00683259 
v -0.00913181 -0.3 -0.00757543 
v -0.0141549 -0.3 -0.00801665 
v -0.0103885 -0.3 -0.00771033 
v -0.0126248 -0.3 0.00791319 
v -0.0303535 -0.3 -0.00874286 
v -0.03 -0.3 0.00875 
v -0.0165236 -0.3 0.00815946 
v -0.0237263 -0.3 0.00861444 
v -0.0194444 -0.3 -0.00839512 
v -0.0241206 -0.3 -0.00863921 
v -0.03 -0.3 -0.00875 
v -0.0249628 -0.3 -0.00865508 
v -0.0176688 -0.3 -0.00830243 
v -0.0241158 -0.3 0.00863904 
v 0.04 -0.3 0 
v -0.0357108 -0.182 0.00662939 
v -0.036396 -0.182 0.0059711 
v -0.0370057 -0.182 0.0052424 
v -0.0375328 -0.182 0.00445189 
v -0.0379711 -0.182 0.00360889 
v -0.0383154 -0.182 0.00272334 
v -0.0385617 -0.182 0.00180567 
v -0.038707 -0.182 0.000866711 
v -0.0387496 -0.182 -8.24656e-05 
v -0.0386891 -0.182 -0.00103067 
v -0.0385261 -0.182 -0.00196672 
v -0.0382626 -0.182 -0.00287958 
v -0.0379017 -0.182 -0.00375849 
v -0.0374476 -0.182 -0.00459308 
v -0.0369056 -0.182 -0.00537352 
v -0.0362814 -0.197537 -0.00608969 
v -0.0363672 -0.193099 -0.00600182 
v -0.0365558 -0.182 -0.00579513 
v -0.0364224 -0.189847 -0.00594125 
v -0.0358731 -0.216571 -0.00648612 
v -0.0357501 -0.221111 -0.00659248 
v -0.0355846 -0.22722 -0.00673558 
v -0.0361526 -0.204198 -0.0062216 
v -0.0359877 -0.211497 -0.00637765 
v -0.0351161 -0.240998 -0.00709528 
v -0.034985 -0.244022 -0.00718301 
v -0.0351711 -0.239729 -0.00705845 
v -0.0348173 -0.24789 -0.00729525 
v -0.0355724 -0.227673 -0.0067462 
v -0.0352827 -0.236645 -0.00697539 
v -0.0340073 -0.263391 -0.0077678 
v -0.0339971 -0.26356 -0.00777315 
v -0.0344347 -0.256286 -0.00754293 
v -0.0345531 -0.253982 -0.00747205 
v -0.0333885 -0.272525 -0.00805477 
v -0.0331301 -0.275878 -0.00815912 
v -0.0337044 -0.268425 -0.00792715 
v -0.0335447 -0.270499 -0.00799168 
v -0.0326566 -0.281555 -0.00832892 
v -0.0322274 -0.286032 -0.00845207 
v -0.0328398 -0.279644 -0.00827634 
v -0.031437 -0.293336 -0.0086312 
v -0.0312989 -0.294308 -0.00864969 
v -0.0319804 -0.288608 -0.00852295 
v -0.0317422 -0.290681 -0.0085704 
v -0.0304222 -0.299354 -0.00873981 
v -0.0303535 -0.299542 -0.00874274 
v -0.0308848 -0.297224 -0.00870515 
v -0.0306685 -0.298383 -0.00872442 
v -0.030054 -0.29999 -0.00874983 
v -0.0300462 -0.299993 -0.00874988 
v -0.0300707 -0.299983 -0.00874971 
v -0.0300888 -0.299973 -0.00874955 
v -0.030114 -0.299955 -0.00874926 
v -0.0301094 -0.299958 -0.00874932 
v -0.0301392 -0.299932 -0.00874889 
v -0.0301989 -0.29986 -0.00874774 
v -0.0301691 -0.299899 -0.00874837 
v -0.0302475 -0.299782 -0.0087465 
v -0.0300309 -0.299997 -0.00874995 
v -0.0300155 -0.299999 -0.00874999 
v -0.0303229 -0.299625 -0.00874404 
v -0.0302906 -0.292208 0.00874517 
v -0.0304766 -0.290182 0.00873701 
v -0.0301142 -0.293811 0.00874926 
v -0.03 -0.294525 0.00875 
v -0.0306804 -0.287756 0.0087235 
v -0.0311184 -0.282045 0.00867613 
v -0.0305182 -0.289687 0.00873426 
v -0.0312004 -0.280976 0.00866727 
v -0.0314604 -0.2771 0.0086171 
v -0.0321103 -0.267411 0.00849171 
v -0.0323862 -0.26259 0.00840814 
v -0.0327062 -0.256998 0.00831123 
v -0.0329562 -0.252628 0.00823548 
v -0.0332832 -0.245867 0.00809825 
v -0.0335187 -0.240995 0.00799939 
v -0.0338073 -0.235027 0.00787827 
v -0.0341426 -0.226738 0.00769571 
v -0.0342099 -0.225075 0.00765907 
v -0.034551 -0.216643 0.00747337 
v -0.0351992 -0.197488 0.00703779 
v -0.0355999 -0.183602 0.00672113 
v -0.0349538 -0.204741 0.00720272 
v -0.0356461 -0.182 0.00668461 
v 0.0282 -0.2115 0 
v 0.0321333 -0.241 0 
v 0.0360667 -0.2705 0 
v 0.00747326 -0.182 -0.00182513 
v 0.0242667 -0.182 0 
v 8.13943e-05 -0.182 -0.00255912 
v -0.00896395 -0.182 -0.0034573 
v -0.0211537 -0.182 -0.0045411 
v -0.0250246 -0.182 -0.00488527 
v 0.0155061 -0.241 -0.00214547 
v -0.00823908 -0.2705 -0.00587818 
v -0.0100874 -0.2115 -0.00419229 
v 0.000977453 -0.241 -0.00382735 
v -0.0122271 -0.241 -0.00518598 
v 0.00779472 -0.2115 -0.00236214 
v 0.0120423 -0.2705 -0.00346242 
v 0.0232175 -0.2705 -0.00192879 
v 0.0293787 -0.2705 -0.0010254 
v 0.00176827 -0.2705 -0.00474814 
v -0.0184681 -0.2705 -0.00688641 
v -0.0237714 -0.2705 -0.00733641 
v -0.0301767 -0.299771 -0.00874637 
v -0.0292276 -0.2705 -0.00773381 
v -0.024732 -0.241 -0.00630708 
v -0.0262225 -0.2115 -0.00562382 
v -0.0203787 -0.182 0.0052495 
v -0.00763642 -0.182 0.00387665 
v 0.00788544 -0.182 0.00205943 
v -0.00409462 -0.182 0.00349505 
v 0.0132218 -0.182 0.00141996 
v -0.0223018 -0.182 0.00543027 
v 0.00109522 -0.2705 0.00537799 
v -0.0181601 -0.241 0.00665664 
v 0.0131656 -0.2115 0.00207548 
v -0.00106841 -0.2115 0.00388241 
v 0.00549774 -0.241 0.00387087 
v -0.00670341 -0.241 0.00539939 
v 0.0184433 -0.241 0.00207107 
v -0.0288724 -0.241 0.00764262 
v 0.023721 -0.2705 0.00206667 
v 0.0120639 -0.2705 0.00385933 
vn 0 -1 0 
vn -0.652667 0 0.757645 
vn -0.730968 0 0.682412 
vn -0.80065 0 0.599132 
vn -0.860892 0 0.508788 
vn -0.910983 0 0.412445 
vn -0.950332 0 0.311238 
vn -0.978476 0 0.206362 
vn -0.995082 0 0.0990527 
vn -0.999956 0 -0.00942464 
vn -0.993038 0 -0.117791 
vn -0.974412 0 -0.224768 
vn -0.944297 0 -0.329095 
vn -0.903047 0 -0.429542 
vn -0.851149 0 -0.524924 
vn -0.789215 0 -0.614116 
vn -0.717976 0 -0.696068 
vn -0.727675 0 -0.685922 
vn -0.749238 0 -0.662301 
vn -0.734072 0 -0.679072 
vn -0.717976 0 -0.696068 
vn -0.671206 0 -0.741271 
vn -0.657317 0 -0.753614 
vn -0.638271 0 -0.769812 
vn -0.63827 0 -0.769812 
vn -0.703151 0 -0.71104 
vn -0.684466 0 -0.729045 
vn -0.55104 0 -0.834479 
vn -0.584871 0 -0.811126 
vn -0.570151 0 -0.82154 
vn -0.590988 0 -0.80668 
vn -0.551037 0 -0.834481 
vn -0.636842 0 -0.770995 
vn -0.603732 0 -0.797187 
vn -0.458473 0 -0.888708 
vn -0.457305 0 -0.88931 
vn -0.506825 0 -0.862049 
vn -0.520358 0 -0.853948 
vn -0.457311 0 -0.889307 
vn -0.387763 0 -0.921759 
vn -0.358177 0 -0.933654 
vn -0.423364 0 -0.90596 
vn -0.40545 0 -0.914117 
vn -0.358191 0 -0.933648 
vn -0.303878 0 -0.952711 
vn -0.254832 0 -0.966985 
vn -0.324552 0 -0.945868 
vn -0.254847 0 -0.966981 
vn -0.164229 0 -0.986422 
vn -0.148502 0 -0.988912 
vn -0.226329 0 -0.974051 
vn -0.199204 0 -0.979958 
vn -0.148498 0 -0.988913 
vn -0.0482529 0 -0.998835 
vn -0.0403977 0 -0.999184 
vn -0.101123 0 -0.994874 
vn -0.0764051 0 -0.997077 
vn -0.0403977 0 -0.999184 
vn -0.00616745 0 -0.999981 
vn -0.00528393 0 -0.999986 
vn -0.00807659 0 -0.999967 
vn -0.0101514 0 -0.999948 
vn -0.0130309 0 -0.999915 
vn -0.0125073 0 -0.999922 
vn -0.0159104 0 -0.999873 
vn -0.0227262 0 -0.999742 
vn -0.0193245 0 -0.999813 
vn -0.0282899 0 -0.9996 
vn -0.00352634 0 -0.999994 
vn -0.00177156 0 -0.999998 
vn 4.00473e-14 0 -1 
vn -0.0369007 0 -0.999319 
vn -0.0592236 0 0.998245 
vn -0.03321 0 0.999448 
vn -0.0544722 0 0.998515 
vn -0.0130457 0 0.999915 
vn 1.74464e-14 0 1 
vn -0.167111 0 0.985938 
vn -0.0777627 0 0.996972 
vn -0.127853 0 0.991793 
vn -0.0592234 0 0.998245 
vn -0.137183 0 0.990546 
vn -0.273027 0 0.962006 
vn -0.167094 0 0.985941 
vn -0.241178 0 0.970481 
vn -0.375725 0 0.926731 
vn -0.273015 0 0.96201 
vn -0.309606 0 0.950865 
vn -0.337855 0 0.941198 
vn -0.473992 0 0.880529 
vn -0.375715 0 0.926735 
vn -0.402642 0 0.915357 
vn -0.435117 0 0.900374 
vn -0.566671 0 0.823944 
vn -0.473989 0 0.880531 
vn -0.481691 0 0.876341 
vn -0.52011 0 0.854099 
vn -0.594197 0 0.804319 
vn -0.640113 0 0.768281 
vn -0.566676 0 0.823941 
vn -0.645269 0 0.763955 
vn 0.121393 0.0161858 -0.992473 
vn 0.134419 0.0179225 -0.990762 
vn 0.121218 0.0243979 -0.992326 
vn 0.105665 0.0446324 -0.9934 
vn 0.139686 0.0658423 -0.988004 
vn 0.123952 0.0667282 -0.990042 
vn 0.142378 0.065241 -0.98766 
vn 0.154742 0.0206323 -0.987739 
vn 0.190808 0.0254411 -0.981298 
vn 0.185174 0.0330078 -0.982151 
vn 0.095039 0.0233359 -0.9952 
vn 0.108512 0.0284079 -0.993689 
vn 0.0958953 0.0307281 -0.994917 
vn 0.108241 0.0209943 -0.993903 
vn 0.103533 0.0177745 -0.994467 
vn 0.112337 0.0149783 -0.993557 
vn 0.0993303 0.0186578 -0.99488 
vn 0.0938429 0.01942 -0.995398 
vn 0.0857587 0.0198437 -0.996118 
vn 0.129827 0.036438 -0.990867 
vn 0.158909 0.0582223 -0.985575 
vn 0.156575 0.0596501 -0.985863 
vn 0.168547 0.0510411 -0.984371 
vn 0.141848 0.0298119 -0.989439 
vn 0.176355 0.0434433 -0.983367 
vn 0.179648 0.0397407 -0.982928 
vn 0.148181 0.0256136 -0.988629 
vn 0.118223 0.0413622 -0.992125 
vn 0.0895732 0.0450709 -0.99496 
vn 0.11817 0.0662362 -0.990782 
vn 0.112185 0.0652878 -0.99154 
vn 0.0789649 0.0434273 -0.995931 
vn 0.0980733 0.0619285 -0.99325 
vn 0.0314703 0.0331054 -0.998956 
vn 0.0123314 0.0216093 -0.99969 
vn 0.0146988 0.0227 -0.999634 
vn -0.000632864 0.015387 -0.999881 
vn -0.000370628 0.0155021 -0.99988 
vn 0.00171099 0.0164948 -0.999862 
vn 0.00466527 0.0179378 -0.999828 
vn -0.000317218 0.0156086 -0.999878 
vn -0.000776466 0.0153672 -0.999882 
vn -0.000825966 0.015332 -0.999882 
vn -0.000614842 0.0154699 -0.99988 
vn -0.000700027 0.0154169 -0.999881 
vn -0.000597332 0.0154806 -0.99988 
vn -0.000424569 0.0155845 -0.999878 
vn -0.000510914 0.0155329 -0.999879 
vn -0.000336766 0.0156363 -0.999878 
vn -0.000293457 0.0156617 -0.999877 
vn 1.46511e-14 0.0158313 -0.999875 
vn -0.000104865 0.0157711 -0.999876 
vn -0.000202337 0.0157148 -0.999876 
vn -0.000849649 0.015305 -0.999883 
vn -0.0007492 0.0153356 -0.999882 
vn 0.0360776 0.035503 -0.998718 
vn 0.0211196 0.0255792 -0.99945 
vn 0.0256576 0.0274906 -0.999293 
vn 0.0310296 0.0296329 -0.999079 
vn 0.0590917 0.0468104 -0.997154 
vn 0.0667816 0.0502672 -0.996501 
vn 0.0390039 0.0324199 -0.998713 
vn 0.041953 0.0332887 -0.998565 
vn 0.0472947 0.0346394 -0.99828 
vn 0.0807431 0.0560316 -0.995159 
vn 0.065833 0.0399459 -0.997031 
vn 0.0939829 0.0606879 -0.993722 
vn 0.0511691 0.0352915 -0.998066 
vn 0.0532712 0.0355105 -0.997948 
vn 0.0552479 0.0356222 -0.997837 
vn 0.0591769 0.0354469 -0.997618 
vn 0.059133 0.0353785 -0.997623 
vn 0.0632383 0.0342108 -0.997412 
vn 0.0642772 0.0337088 -0.997363 
vn 0.0664788 0.0321664 -0.997269 
vn 0.0822065 0.0314776 -0.996118 
vn 0.0672369 0.0310099 -0.997255 
vn 0.0687857 0.0289068 -0.997213 
vn 0.0700856 0.0265709 -0.997187 
vn 0.0679381 0.0301288 -0.997235 
vn 0.068239 0.0297721 -0.997225 
vn 0.0701415 0.0264599 -0.997186 
vn 0.08131 0.0237865 -0.996405 
vn 0.0706725 0.0250136 -0.997186 
vn 0.0711991 0.024059 -0.997172 
vn 0.0729319 0.0209941 -0.997116 
vn 0.0732822 0.0204389 -0.997102 
vn 0.0715576 0.0230937 -0.997169 
vn 0.0723547 0.0219231 -0.997138 
vn 0.0830129 0.0198274 -0.996351 
vn 0.0734648 0.0200543 -0.997096 
vn 0.0740933 0.0192475 -0.997066 
vn 0.123428 0.0364097 0.991685 
vn 0.127332 0.036785 0.991178 
vn 0.128888 0.033354 0.991098 
vn 0.10063 0.0294701 0.994487 
vn 0.143867 0.0373154 0.988893 
vn 0.131461 0.0233711 0.991046 
vn 0.119995 0.0263205 0.992426 
vn 0.131157 0.0288056 0.990943 
vn 0.100553 0.0253572 0.994608 
vn 0.116891 0.0301814 0.992686 
vn 0.11066 0.0242422 0.993563 
vn 0.141698 0.0188931 0.98973 
vn 0.143769 0.0255734 0.989281 
vn 0.121135 0.0215236 0.992403 
vn 0.113208 0.023741 0.993288 
vn 0.130513 0.0174017 0.991294 
vn 0.124356 0.0203069 0.99203 
vn 0.081932 0.0263744 0.996289 
vn 0.0996317 0.0324348 0.994496 
vn 0.158685 0.0282422 0.986925 
vn 0.144736 0.0318287 0.988958 
vn 0.161598 0.0355831 0.986215 
vn 0.160993 0.0356887 0.98631 
vn 0.171051 0.0228067 0.984998 
vn 0.177118 0.0315406 0.983684 
vn 0.154994 0.0206659 0.987699 
vn 0.0988863 0.0254201 0.994774 
vn 0.0859023 0.0249877 0.99599 
vn 0.0860521 0.0249333 0.995979 
vn 0.0808432 0.0254251 0.996402 
vn 0.0783573 0.0251505 0.996608 
vn 0.0833197 0.0254727 0.996197 
vn 0.0844187 0.0253706 0.996107 
vn 0.0780273 0.0251208 0.996635 
vn 0.0750016 0.0246048 0.99688 
vn 0.0864087 0.0291765 0.995832 
vn 0.0627992 0.0214802 0.997795 
vn 0.0659638 0.0224083 0.99757 
vn 0.0699832 0.0234818 0.997272 
vn 0.0716131 0.0248162 0.997124 
vn 0.0722 0.024004 0.997101 
vn 0.038536 0.0128856 0.999174 
vn 0.0369702 0.012266 0.999241 
vn 0.0437381 0.0148982 0.998932 
vn 0.0586789 0.0201916 0.998073 
vn 0.0543106 0.0187317 0.998348 
vn 0.0159014 0.0034229 0.999868 
vn 2.65074e-14 -0.00374325 0.999993 
vn 0.0361304 0.0119448 0.999276 
vn 0.0382172 0.0127805 0.999188 
vn 0.0200495 0.00522935 0.999785 
vn 0.0170691 0.00393425 0.999847 
vn 0.0237945 0.0068351 0.999694 
vn 0.0246909 0.00721574 0.999669 
vn 0.0280532 0.00862978 0.999569 
vn 0.190808 0.0254411 0.981298 
vn 0 1 0 
usemtl 0.615686_0.811765_0.929412_0.000000_0.000000
o mesh0
f 1//1 2//1 3//1 
f 1//1 4//1 2//1 
f 1//1 5//1 6//1 
f 1//1 7//1 8//1 
f 9//1 10//1 11//1 
f 6//1 4//1 1//1 
f 1//1 12//1 13//1 
f 1//1 14//1 15//1 
f 1//1 16//1 17//1 
f 1//1 18//1 19//1 
f 1//1 20//1 7//1 
f 21//1 22//1 23//1 
f 21//1 1//1 24//1 
f 9//1 25//1 26//1 
f 11//1 27//1 9//1 
f 28//1 11//1 10//1 
f 29//1 30//1 31//1 
f 32//1 31//1 30//1 
f 13//1 5//1 1//1 
f 15//1 33//1 1//1 
f 1//1 34//1 35//1 
f 19//1 16//1 1//1 
f 1//1 36//1 37//1 
f 1//1 21//1 20//1 
f 24//1 22//1 21//1 
f 27//1 25//1 9//1 
f 38//1 39//1 28//1 
f 29//1 40//1 39//1 
f 30//1 41//1 32//1 
f 33//1 12//1 1//1 
f 1//1 42//1 34//1 
f 37//1 18//1 1//1 
f 23//1 43//1 21//1 
f 10//1 38//1 28//1 
f 31//1 40//1 29//1 
f 44//1 45//1 46//1 
f 35//1 14//1 1//1 
f 8//1 36//1 1//1 
f 39//1 38//1 29//1 
f 46//1 41//1 44//1 
f 17//1 42//1 1//1 
f 46//1 32//1 41//1 
f 47//1 45//1 44//1 
f 48//1 49//1 50//1 
f 51//1 52//1 1//1 
f 44//1 50//1 47//1 
f 50//1 53//1 48//1 
f 53//1 54//1 55//1 
f 56//1 55//1 54//1 
f 52//1 57//1 58//1 
f 3//1 51//1 1//1 
f 49//1 47//1 50//1 
f 55//1 59//1 53//1 
f 60//1 58//1 56//1 
f 51//1 57//1 52//1 
f 59//1 48//1 53//1 
f 58//1 60//1 52//1 
f 54//1 60//1 56//1 
f 26//1 61//1 9//1 
o mesh1
f 20//2 62//2 63//3 
f 7//3 63//3 64//4 
f 8//4 64//4 65//5 
f 36//5 65//5 66//6 
f 37//6 66//6 67//7 
f 18//7 67//7 68//8 
f 19//8 68//8 69//9 
f 16//9 69//9 70//10 
f 17//10 70//10 71//11 
f 42//11 71//11 72//12 
f 34//12 72//12 73//13 
f 35//13 73//13 74//14 
f 14//14 74//14 75//15 
f 15//15 75//15 76//16 
f 33//16 76//16 77//17 
f 76//16 78//18 77//17 
f 76//16 79//19 80//20 
f 80//20 78//18 76//16 
f 12//21 81//22 82//23 
f 82//23 13//24 12//21 
f 82//23 83//25 13//24 
f 12//21 84//26 85//27 
f 12//21 77//17 84//26 
f 85//27 81//22 12//21 
f 5//28 86//29 87//30 
f 13//24 88//31 86//29 
f 86//29 5//28 13//24 
f 87//30 89//32 5//28 
f 13//24 83//25 90//33 
f 90//33 91//34 13//24 
f 91//34 88//31 13//24 
f 5//28 92//35 93//36 
f 5//28 94//37 92//35 
f 5//28 89//32 95//38 
f 95//38 94//37 5//28 
f 6//39 96//40 97//41 
f 6//39 98//42 99//43 
f 99//43 96//40 6//39 
f 6//39 93//36 98//42 
f 4//44 100//45 101//46 
f 4//44 102//47 100//45 
f 4//44 97//41 102//47 
f 2//48 103//49 104//50 
f 2//48 105//51 106//52 
f 2//48 101//46 105//51 
f 106//52 103//49 2//48 
f 3//53 107//54 108//55 
f 3//53 104//50 109//56 
f 109//56 110//57 3//53 
f 110//57 107//54 3//53 
f 51//58 111//59 112//60 
f 51//58 113//61 111//59 
f 51//58 114//62 113//61 
f 51//58 115//63 116//64 
f 51//58 117//65 115//63 
f 116//64 114//62 51//58 
f 51//58 118//66 119//67 
f 51//58 120//68 118//66 
f 119//67 117//65 51//58 
f 112//60 121//69 51//58 
f 121//69 122//70 51//58 
f 122//70 57//71 51//58 
f 51//58 108//55 123//72 
f 123//72 120//68 51//58 
f 1//73 124//74 125//75 
f 1//73 126//76 124//74 
f 1//73 52//77 127//77 
f 127//77 126//76 1//73 
f 24//78 128//79 129//80 
f 24//78 1//73 130//81 
f 130//81 128//79 24//78 
f 129//80 131//82 24//78 
f 22//83 24//78 132//84 
f 132//84 133//85 22//83 
f 23//86 22//83 134//87 
f 134//87 135//88 23//86 
f 135//88 136//89 23//86 
f 43//90 23//86 137//91 
f 137//91 138//92 43//90 
f 138//92 139//93 43//90 
f 21//94 43//90 140//95 
f 140//95 141//96 21//94 
f 141//96 142//97 21//94 
f 62//2 20//2 143//98 
f 143//98 144//99 62//2 
f 20//2 21//94 145//100 
f 145//100 143//98 20//2 
f 144//99 146//101 62//2 
f 142//97 145//100 21//94 
f 139//93 140//95 43//90 
f 136//89 137//91 23//86 
f 133//85 134//87 22//83 
f 131//82 132//84 24//78 
f 125//75 130//81 1//73 
f 108//55 51//58 3//53 
f 104//50 3//53 2//48 
f 101//46 2//48 4//44 
f 97//41 4//44 6//39 
f 93//36 6//39 5//28 
f 77//17 12//21 33//16 
f 76//16 33//16 15//15 
f 75//15 15//15 14//14 
f 74//14 14//14 35//13 
f 73//13 35//13 34//12 
f 72//12 34//12 42//11 
f 71//11 42//11 17//10 
f 70//10 17//10 16//9 
f 69//9 16//9 19//8 
f 68//8 19//8 18//7 
f 67//7 18//7 37//6 
f 66//6 37//6 36//5 
f 65//5 36//5 8//4 
f 64//4 8//4 7//3 
f 63//3 7//3 20//2 
o mesh2
f 147//102 148//103 156//104 
f 157//105 31//106 32//107 
f 157//105 40//108 31//106 
f 149//109 61//110 26//111 
f 158//112 159//113 160//114 
f 161//115 156//104 159//113 
f 161//115 150//116 151//117 
f 161//115 152//118 150//116 
f 158//112 153//119 152//118 
f 158//112 154//120 153//119 
f 162//121 28//122 39//123 
f 162//121 11//124 28//122 
f 163//125 27//126 11//124 
f 163//125 25//127 27//126 
f 148//103 164//128 163//125 
f 148//103 149//109 164//128 
f 164//128 26//111 25//127 
f 156//104 163//125 162//121 
f 159//113 162//121 165//129 
f 165//129 39//123 40//108 
f 160//114 165//129 157//105 
f 166//130 46//131 45//132 
f 166//130 32//107 46//131 
f 167//133 45//132 47//134 
f 58//135 104//136 103//137 
f 58//135 108//138 107//139 
f 107//139 110//140 58//135 
f 110//140 109//141 58//135 
f 168//142 119//143 118//144 
f 168//142 115//145 117//146 
f 117//146 119//143 168//142 
f 168//142 116//147 115//145 
f 168//142 113//148 114//149 
f 168//142 111//150 113//148 
f 168//142 112//151 111//150 
f 168//142 57//152 122//153 
f 122//153 121//154 168//142 
f 121//154 112//151 168//142 
f 114//149 116//147 168//142 
f 168//142 120//155 123//156 
f 123//156 108//138 168//142 
f 58//135 57//152 168//142 
f 168//142 108//138 58//135 
f 118//144 120//155 168//142 
f 109//141 104//136 58//135 
f 56//157 58//135 106//158 
f 106//158 105//159 56//157 
f 101//160 55//161 56//157 
f 105//159 101//160 56//157 
f 59//162 55//161 100//163 
f 100//163 102//164 59//162 
f 97//165 48//166 59//162 
f 102//164 97//165 59//162 
f 169//167 49//168 48//166 
f 48//166 96//169 169//167 
f 169//167 47//134 49//168 
f 169//167 99//170 98//171 
f 98//171 93//172 169//167 
f 167//133 169//167 92//173 
f 92//173 94//174 167//133 
f 94//174 95//175 167//133 
f 89//176 166//130 167//133 
f 95//175 89//176 167//133 
f 170//177 157//105 166//130 
f 166//130 87//178 170//177 
f 170//177 91//179 90//180 
f 170//177 86//181 88//182 
f 88//182 91//179 170//177 
f 90//180 83//183 170//177 
f 171//184 160//114 170//177 
f 170//177 82//185 171//184 
f 82//185 81//186 171//184 
f 171//184 77//187 78//188 
f 171//184 85//189 84//190 
f 84//190 77//187 171//184 
f 171//184 155//191 154//120 
f 155//191 171//184 80//192 
f 80//192 79//193 155//191 
f 154//120 158//112 171//184 
f 78//188 80//192 171//184 
f 81//186 85//189 171//184 
f 83//183 82//185 170//177 
f 87//178 86//181 170//177 
f 89//176 87//178 166//130 
f 93//172 92//173 169//167 
f 96//169 99//170 169//167 
f 97//165 96//169 48//166 
f 101//160 100//163 55//161 
f 103//137 106//158 58//135 
f 47//134 169//167 167//133 
f 45//132 167//133 166//130 
f 157//105 170//177 160//114 
f 40//108 157//105 165//129 
f 165//129 160//114 159//113 
f 162//121 159//113 156//104 
f 25//127 163//125 164//128 
f 163//125 156//104 148//103 
f 11//124 162//121 163//125 
f 39//123 165//129 162//121 
f 152//118 161//115 158//112 
f 151//117 147//102 161//115 
f 159//113 158//112 161//115 
f 160//114 171//184 158//112 
f 26//111 164//128 149//109 
f 32//107 166//130 157//105 
f 156//104 161//115 147//102 
o mesh3
f 41//194 30//195 178//196 
f 178//196 179//197 41//194 
f 30//195 29//198 178//196 
f 180//199 181//200 182//201 
f 172//202 183//203 181//200 
f 183//203 182//201 181//200 
f 181//200 173//204 172//202 
f 147//205 180//199 184//206 
f 181//200 180//199 174//207 
f 174//207 175//208 181//200 
f 180//199 147//205 151//209 
f 151//209 176//210 180//199 
f 179//197 185//211 44//212 
f 186//213 187//214 10//215 
f 187//214 178//196 29//198 
f 29//198 38//216 187//214 
f 182//201 183//203 178//196 
f 149//217 186//213 9//218 
f 184//206 182//201 187//214 
f 148//219 184//206 186//213 
f 177//220 144//221 179//197 
f 177//220 146//222 144//221 
f 179//197 142//223 141//224 
f 179//197 145//225 142//223 
f 179//197 144//221 143//226 
f 143//226 145//225 179//197 
f 185//211 140//227 139//228 
f 185//211 141//224 140//227 
f 50//229 185//211 135//230 
f 185//211 136//231 135//230 
f 185//211 137//232 136//231 
f 135//230 53//233 50//229 
f 185//211 138//234 137//232 
f 53//233 131//235 129//236 
f 53//233 132//237 131//235 
f 53//233 134//238 133//239 
f 133//239 132//237 53//233 
f 53//233 135//230 134//238 
f 127//240 52//241 60//242 
f 54//243 124//244 126//245 
f 54//243 125//246 124//244 
f 54//243 130//247 125//246 
f 54//243 129//236 128//248 
f 128//248 130//247 54//243 
f 126//245 127//240 54//243 
f 60//242 54//243 127//240 
f 129//236 54//243 53//233 
f 50//229 44//212 185//211 
f 139//228 138//234 185//211 
f 141//224 185//211 179//197 
f 179//197 183//203 177//220 
f 186//213 149//217 148//219 
f 187//214 186//213 184//206 
f 9//218 61//249 149//217 
f 178//196 187//214 182//201 
f 38//216 10//215 187//214 
f 10//215 9//218 186//213 
f 44//212 41//194 179//197 
f 176//210 174//207 180//199 
f 175//208 173//204 181//200 
f 184//206 148//219 147//205 
f 172//202 177//220 183//203 
f 182//201 184//206 180//199 
f 178//196 183//203 179//197 
o mesh4
f 155//250 71//250 70//250 
f 155//250 73//250 72//250 
f 155//250 69//250 68//250 
f 72//250 71//250 155//250 
f 155//250 76//250 75//250 
f 155//250 66//250 65//250 
f 70//250 69//250 155//250 
f 75//250 74//250 155//250 
f 155//250 67//250 66//250 
f 74//250 73//250 155//250 
f 155//250 64//250 63//250 
f 68//250 67//250 155//250 
f 65//250 64//250 155//250 
f 172//250 173//250 153//250 
f 155//250 62//250 146//250 
f 155//250 79//250 76//250 
f 153//250 173//250 175//250 
f 154//250 177//250 172//250 
f 63//250 62//250 155//250 
f 153//250 154//250 172//250 
f 174//250 150//250 152//250 
f 177//250 154//250 155//250 
f 152//250 175//250 174//250 
f 150//250 174//250 176//250 
f 175//250 152//250 153//250 
f 146//250 177//250 155//250 
f 176//250 151//250 150//250 
