# File units = meters
mtllib Cambered Delta Wing - Part 2.mtl
g Part 2
v 0.128419 0 -0.000660151 
v 0.128384 0 -5.4901e-16 
v 0.128419 0 0.000660151 
v 0.128524 0 0.00131289 
v 0.128524 0 -0.00131289 
v 0.128697 0 0.00195091 
v 0.129604 0 -0.00370627 
v 0.12924 0 -0.00315435 
v 0.128697 0 -0.00195091 
v 0.128937 0 -0.00256703 
v 0.130496 0 -0.00467964 
v 0.130024 0 -0.00421661 
v 0.131014 0 -0.00509016 
v 0.130024 0 0.00421661 
v 0.130496 0 0.00467964 
v 0.128937 0 0.00256703 
v 0.12924 0 0.00315435 
v 0.129604 0 0.00370627 
v 0.182283 0 0.00134364 
v 0.197308 0 1.93684e-17 
v 0.191791 0 -0.000533315 
v 0.168149 0 -0.00259559 
v 0.158456 0 -0.0034411 
v 0.161554 0 0.00319747 
v 0.154898 0 0.00366127 
v 0.16815 0 0.00260755 
v 0.154899 0 -0.00367927 
v 0.131268 0 -0.00526137 
v 0.131014 0 0.00509016 
v 0.131268 0 0.00526137 
v 0.142525 0 -0.00450771 
v 0.142526 0 0.00452335 
v 0.134712 0 0.00506788 
v 0.196225 -0.04 7.38778e-18 
v 0.195142 -0.08 -4.59282e-18 
v 0.159021 -0.16 -0.00457681 
v 0.151983 -0.16 -0.00520708 
v 0.19406 -0.12 -1.65734e-17 
v 0.192977 -0.16 -2.8554e-17 
v 0.166629 -0.16 -0.00364667 
v 0.18361 -0.16 -0.00138717 
v 0.17737 -0.16 -0.00231115 
v 0.159474 -0.16 -0.00453627 
v 0.14574 -0.16 -0.00576617 
v 0.145539 -0.16 -0.00577477 
v 0.132685 -0.097482 -0.00593158 
v 0.132788 -0.101886 -0.00595892 
v 0.133428 -0.128677 -0.00612211 
v 0.133367 -0.126661 -0.00611277 
v 0.134082 -0.149642 -0.00621553 
v 0.133994 -0.147393 -0.00620887 
v 0.134625 -0.16 -0.0062409 
v 0.134539 -0.159321 -0.00624031 
v 0.134321 -0.155704 -0.00623348 
v 0.132168 -0.0684064 -0.00572977 
v 0.13203 -0.0606275 -0.00567578 
v 0.131856 -0.0488169 -0.0055929 
v 0.131577 -0.0256605 -0.00543564 
v 0.132274 -0.0743489 -0.00577102 
v 0.131288 -0.00164753 -0.00527256 
v 0.132374 -0.0799968 -0.00581022 
v 0.174831 -0.16 -0.00262689 
v 0.182621 -0.04 -0.00142047 
v 0.150776 -0.08 -0.00458466 
v 0.183283 -0.12 -0.00142047 
v 0.169825 -0.04 -0.00265807 
v 0.160769 -0.08 -0.0037128 
v 0.182952 -0.08 -0.00142047 
v 0.171495 -0.08 -0.00265807 
v 0.173165 -0.12 -0.00265807 
v 0.141515 -0.08 -0.00527366 
v 0.132987 -0.08 -0.00577979 
v 0.159014 -0.16 0.0045179 
v 0.145534 -0.16 0.00571021 
v 0.151988 -0.16 0.00525081 
v 0.153188 -0.16 0.00516537 
v 0.174826 -0.16 0.00259853 
v 0.166632 -0.16 0.00367138 
v 0.169759 -0.16 0.00332397 
v 0.183603 -0.16 0.00134196 
v 0.131288 -0.00182725 0.00527343 
v 0.132168 -0.0685935 0.00573126 
v 0.132273 -0.074534 0.00577251 
v 0.131976 -0.0570699 0.00565078 
v 0.132057 -0.0624026 0.00568827 
v 0.131576 -0.0260528 0.00543723 
v 0.131401 -0.0124808 0.00534379 
v 0.140567 -0.16 0.00606382 
v 0.133236 -0.12164 0.00608435 
v 0.133321 -0.124893 0.00610279 
v 0.13311 -0.116565 0.0060542 
v 0.132787 -0.102133 0.00596175 
v 0.132983 -0.111207 0.00602106 
v 0.139671 -0.16 0.00609051 
v 0.13237 -0.0799973 0.00581045 
v 0.132659 -0.0962074 0.00592301 
v 0.134531 -0.159231 0.00624019 
v 0.134609 -0.159912 0.00624088 
v 0.134433 -0.157857 0.00623795 
v 0.134341 -0.15613 0.00623444 
v 0.134248 -0.154069 0.00622949 
v 0.134151 -0.151685 0.00622288 
v 0.134082 -0.149837 0.00621705 
v 0.133945 -0.145976 0.00620371 
v 0.13405 -0.148985 0.00621437 
v 0.133835 -0.142662 0.00619069 
v 0.133721 -0.139047 0.0061751 
v 0.133604 -0.135134 0.00615679 
v 0.133483 -0.130927 0.00613561 
v 0.133427 -0.128873 0.0061246 
v 0.133361 -0.126428 0.00611148 
v 0.134625 -0.16 0.0062409 
v 0.150776 -0.08 0.00458466 
v 0.160769 -0.08 0.0037128 
v 0.182621 -0.04 0.00142047 
v 0.169825 -0.04 0.00265807 
v 0.171495 -0.08 0.00265807 
v 0.182952 -0.08 0.00142047 
v 0.141515 -0.08 0.00527366 
v 0.132987 -0.08 0.00577979 
v 0.183283 -0.12 0.00142047 
v 0.173165 -0.12 0.00265807 
v 0.131014 -0.16 0.00509016 
v 0.130496 -0.16 0.00467964 
v 0.130024 -0.16 0.00421661 
v 0.129604 -0.16 0.00370627 
v 0.12924 -0.16 0.00315435 
v 0.128937 -0.16 0.00256703 
v 0.128697 -0.16 0.00195091 
v 0.128524 -0.16 0.00131289 
v 0.128419 -0.16 0.000660151 
v 0.128384 -0.16 -5.4901e-16 
v 0.128419 -0.16 -0.000660151 
v 0.128524 -0.16 -0.00131289 
v 0.128697 -0.16 -0.00195091 
v 0.128937 -0.16 -0.00256703 
v 0.12924 -0.16 -0.00315435 
v 0.129604 -0.16 -0.00370627 
v 0.130024 -0.16 -0.00421661 
v 0.130496 -0.16 -0.00467964 
v 0.131014 -0.16 -0.00509016 
v 0.131573 -0.16 -0.00544356 
v 0.132166 -0.16 -0.00573589 
v 0.132786 -0.16 -0.00596386 
v 0.133427 -0.16 -0.0061249 
v 0.134082 -0.16 -0.00621723 
v 0.134082 -0.16 0.00621723 
v 0.133427 -0.16 0.0061249 
v 0.132786 -0.16 0.00596386 
v 0.132166 -0.16 0.00573589 
v 0.131573 -0.16 0.00544356 
vn 0 1 0 
vn 0.100175 0.000829213 -0.994969 
vn 0.10731 -0.00290475 -0.994221 
vn 0.119545 -0.00323594 -0.992824 
vn 0.0808005 0.00832829 -0.996695 
vn 0.105954 0.0109209 -0.994311 
vn 0.0882887 0.0115589 -0.996028 
vn 0.126192 0.00104457 -0.992005 
vn 0.1349 -0.00365159 -0.990852 
vn 0.154726 -0.00418826 -0.987949 
vn 0.0774063 0.00501975 -0.996987 
vn 0.0834037 0.0034821 -0.99651 
vn 0.0920911 0.0038448 -0.995743 
vn 0.092588 0.00679116 -0.995681 
vn 0.0749738 0.00549919 -0.99717 
vn 0.0950675 -0.00134107 -0.99547 
vn 0.111698 0.000924596 -0.993742 
vn 0.102788 0.0042914 -0.994694 
vn 0.12094 0.00887072 -0.99262 
vn 0.116277 0.00485458 -0.993205 
vn 0.144963 0.00119995 -0.989436 
vn 0.137266 0.00439904 -0.990524 
vn 0.106947 0.0108334 -0.994206 
vn 0.0670303 0.00877575 -0.997712 
vn 0.0679294 0.0106025 -0.997634 
vn 0.0671765 0.0105398 -0.997685 
vn 0.0507408 0.00796113 -0.99868 
vn 0.0457982 0.00763922 -0.998922 
vn 0.0446799 0.00754616 -0.998973 
vn 0.0344304 0.0063046 -0.999387 
vn 0.0354178 0.00644554 -0.999352 
vn 0.0204643 0.00400911 -0.999783 
vn 0.022266 0.00433066 -0.999743 
vn 0.0114864 0.00232266 -0.999931 
vn 0.0118078 0.00238507 -0.999927 
vn 0.0150106 0.00299992 -0.999883 
vn 0.0510048 0.00785158 -0.998668 
vn 0.0518263 0.00781947 -0.998626 
vn 0.0528109 0.0077313 -0.998575 
vn 0.0539483 0.00745956 -0.998516 
vn 0.0498789 0.00782589 -0.998725 
vn 0.0652777 0.00672832 -0.997844 
vn 0.0542273 0.00709956 -0.998503 
vn 0.0542596 0.00707382 -0.998502 
vn 0.048982 0.00780501 -0.998769 
vn 0.133805 0.00558636 -0.990992 
vn 0.0973355 -0.00263476 -0.995248 
vn 0.0749738 0.00549919 0.99717 
vn 0.0652777 0.00672832 0.997844 
vn 0.0808005 0.00832829 0.996695 
vn 0.092588 0.00679116 0.995681 
vn 0.105954 0.0109209 0.994311 
vn 0.100175 0.000829213 0.994969 
vn 0.0920911 0.0038448 0.995743 
vn 0.102788 0.0042914 0.994694 
vn 0.0794174 0.00456327 0.996831 
vn 0.0834037 0.0034821 0.99651 
vn 0.0907983 0.000751595 0.995869 
vn 0.111698 0.000924596 0.993742 
vn 0.119545 -0.00323594 0.992824 
vn 0.10731 -0.00290475 0.994221 
vn 0.0670303 0.00877575 0.997712 
vn 0.0507408 0.00796113 0.99868 
vn 0.0671765 0.0105398 0.997685 
vn 0.0882887 0.0115589 0.996028 
vn 0.091631 0.0115587 0.995726 
vn 0.126192 0.00104457 0.992005 
vn 0.116277 0.00485458 0.993205 
vn 0.133805 0.00558636 0.990992 
vn 0.12094 0.00887072 0.99262 
vn 0.126174 0.00773084 0.991978 
vn 0.144963 0.00119995 0.989436 
vn 0.154726 -0.00418826 0.987949 
vn 0.1349 -0.00365159 0.990852 
vn 0.0579008 0.00706368 0.998297 
vn 0.0542596 0.00707382 0.998502 
vn 0.0542511 0.00710266 0.998502 
vn 0.0509749 0.00785142 0.998669 
vn 0.0499066 0.00783024 0.998723 
vn 0.052159 0.00779777 0.998608 
vn 0.0516475 0.00782851 0.998635 
vn 0.0539294 0.0074647 0.998517 
vn 0.0541848 0.00726761 0.998504 
vn 0.0459784 0.00815138 0.998909 
vn 0.0377448 0.00676316 0.999265 
vn 0.0362568 0.00656247 0.999321 
vn 0.0398332 0.00702787 0.999182 
vn 0.0445944 0.00753803 0.998977 
vn 0.0417851 0.00725467 0.9991 
vn 0.0415355 0.00751791 0.999109 
vn 0.0490382 0.00781017 0.998766 
vn 0.0461093 0.00766316 0.998907 
vn 0.0118723 0.00239761 0.999927 
vn 0.0114946 0.00232423 0.999931 
vn 0.0130254 0.0026206 0.999912 
vn 0.0146146 0.00292473 0.999889 
vn 0.0165199 0.00328421 0.999858 
vn 0.0186598 0.00368082 0.999819 
vn 0.0202574 0.00397171 0.999787 
vn 0.0233835 0.00452692 0.999716 
vn 0.020967 0.00409941 0.999772 
vn 0.0258581 0.00495206 0.999653 
vn 0.0283459 0.00536525 0.999584 
vn 0.0308085 0.00575857 0.999509 
vn 0.033213 0.00612566 0.99943 
vn 0.0343051 0.00628626 0.999392 
vn 0.0355324 0.00646168 0.999348 
vn 0.0114864 0.00232266 0.999931 
vn 0.0973355 -0.00263476 0.995248 
vn -0.578598 0 0.815613 
vn -0.661626 0 0.749834 
vn -0.73723 0 0.675642 
vn -0.804562 0 0.593868 
vn -0.862867 0 0.505431 
vn -0.911489 0 0.411323 
vn -0.949885 0 0.3126 
vn -0.977622 0 0.210369 
vn -0.99439 0 0.105778 
vn -1 0 -8.68578e-14 
vn -0.99439 0 -0.105778 
vn -0.977622 0 -0.210369 
vn -0.949885 0 -0.3126 
vn -0.911489 0 -0.411323 
vn -0.862867 0 -0.505431 
vn -0.804562 0 -0.593868 
vn -0.73723 0 -0.675642 
vn -0.661626 0 -0.749834 
vn -0.578598 0 -0.815613 
vn -0.489076 0 -0.872241 
vn -0.534767 0 -0.845 
vn -0.537842 0 -0.843046 
vn -0.489078 0 -0.87224 
vn -0.415815 0 -0.909449 
vn -0.394091 0 -0.919071 
vn -0.443713 0 -0.896169 
vn -0.39407 0 -0.91908 
vn -0.310921 0 -0.950436 
vn -0.294661 0 -0.955602 
vn -0.377321 0 -0.926082 
vn -0.361258 0 -0.932466 
vn -0.294641 0 -0.955608 
vn -0.201594 0 -0.979469 
vn -0.191918 0 -0.981411 
vn -0.191905 0 -0.981413 
vn -0.101179 0 -0.994868 
vn -0.0870188 0 -0.996207 
vn -0.0870166 0 -0.996207 
vn -0.0487675 0 -0.99881 
vn -0.0138046 0 -0.999905 
vn -0.0870166 0 0.996207 
vn -0.0604559 0 0.998171 
vn -0.0759469 0 0.997112 
vn -0.0455045 0 0.998964 
vn -0.0307324 0 0.999528 
vn -0.0151148 0 0.999886 
vn -0.002568 0 0.999997 
vn -1.95684e-13 0 1 
vn -0.191905 0 0.981413 
vn -0.163629 0 0.986522 
vn -0.182915 0 0.983129 
vn -0.144827 0 0.989457 
vn -0.126595 0 0.991954 
vn -0.109008 0 0.994041 
vn -0.0921184 0 0.995748 
vn -0.0870167 0 0.996207 
vn -0.294641 0 0.955608 
vn -0.222575 0 0.974916 
vn -0.242766 0 0.970085 
vn -0.202594 0 0.979263 
vn -0.209008 0 0.977914 
vn -0.191905 0 0.981413 
vn -0.263079 0 0.964774 
vn -0.39407 0 0.91908 
vn -0.315086 0 0.949063 
vn -0.361759 0 0.932272 
vn -0.377308 0 0.926088 
vn -0.294642 0 0.955608 
vn -0.489078 0 0.87224 
vn -0.394086 0 0.919073 
vn -0.411412 0 0.91145 
vn -0.424469 0 0.905442 
vn -0.516556 0 0.856253 
vn -0.534746 0 0.845013 
vn -0.489092 0 0.872232 
vn -0.537842 0 0.843046 
vn -2.44929e-16 0 -1 
vn 0 -1 0 
usemtl 0.647059_0.647059_0.647059_0.000000_0.000000
o mesh0
f 1//1 2//1 3//1 
f 4//1 5//1 1//1 
f 6//1 7//1 8//1 
f 4//1 9//1 5//1 
f 8//1 10//1 6//1 
f 6//1 11//1 12//1 
f 13//1 14//1 15//1 
f 13//1 16//1 17//1 
f 3//1 4//1 1//1 
f 12//1 7//1 6//1 
f 13//1 18//1 14//1 
f 13//1 6//1 16//1 
f 10//1 9//1 6//1 
f 17//1 18//1 13//1 
f 6//1 13//1 11//1 
f 19//1 20//1 21//1 
f 22//1 23//1 24//1 
f 25//1 24//1 23//1 
f 4//1 6//1 9//1 
f 22//1 26//1 19//1 
f 23//1 27//1 25//1 
f 28//1 29//1 30//1 
f 29//1 28//1 13//1 
f 24//1 26//1 22//1 
f 31//1 32//1 25//1 
f 31//1 28//1 33//1 
f 15//1 29//1 13//1 
f 25//1 27//1 31//1 
f 30//1 33//1 28//1 
f 33//1 32//1 31//1 
f 21//1 22//1 19//1 
o mesh1
f 63//2 34//3 35//4 
f 64//5 36//6 37//7 
f 65//8 38//9 39//10 
f 23//11 22//12 66//13 
f 66//13 67//14 23//11 
f 67//14 27//15 23//11 
f 22//12 21//16 63//2 
f 21//16 34//3 63//2 
f 63//2 66//13 22//12 
f 63//2 68//17 69//18 
f 27//15 67//14 64//5 
f 40//19 67//14 70//20 
f 67//14 69//18 70//20 
f 68//17 35//4 38//9 
f 65//8 41//21 42//22 
f 42//22 70//20 65//8 
f 68//17 65//8 70//20 
f 67//14 43//23 36//6 
f 67//14 40//19 43//23 
f 71//24 44//25 45//26 
f 71//24 37//7 44//25 
f 72//27 45//26 46//28 
f 45//26 47//29 46//28 
f 45//26 48//30 49//31 
f 45//26 50//32 51//33 
f 51//33 48//30 45//26 
f 49//31 47//29 45//26 
f 45//26 52//34 53//35 
f 53//35 54//36 45//26 
f 54//36 50//32 45//26 
f 71//24 55//37 56//38 
f 56//38 57//39 71//24 
f 57//39 58//40 71//24 
f 71//24 72//27 59//41 
f 59//41 55//37 71//24 
f 31//42 64//5 71//24 
f 71//24 60//43 31//42 
f 60//43 28//44 31//42 
f 58//40 60//43 71//24 
f 59//41 72//27 61//45 
f 46//28 61//45 72//27 
f 45//26 72//27 71//24 
f 36//6 64//5 67//14 
f 70//20 69//18 68//17 
f 42//22 62//46 70//20 
f 38//9 65//8 68//17 
f 70//20 62//46 40//19 
f 64//5 31//42 27//15 
f 69//18 66//13 63//2 
f 21//16 20//47 34//3 
f 66//13 69//18 67//14 
f 39//10 41//21 65//8 
f 37//7 71//24 64//5 
f 35//4 68//17 63//2 
o mesh2
f 25//48 32//49 113//50 
f 114//51 113//50 73//52 
f 115//53 116//54 117//55 
f 24//56 114//51 116//54 
f 114//51 117//55 116//54 
f 116//54 26//57 24//56 
f 19//58 26//57 116//54 
f 115//53 118//59 35//60 
f 19//58 115//53 34//61 
f 119//62 120//63 74//64 
f 113//50 119//62 75//65 
f 75//65 76//66 113//50 
f 121//67 122//68 77//69 
f 78//70 79//71 122//68 
f 122//68 114//51 78//70 
f 79//71 77//69 122//68 
f 118//59 117//55 122//68 
f 121//67 80//72 39//73 
f 118//59 121//67 38//74 
f 33//75 30//76 81//77 
f 119//62 113//50 32//49 
f 32//49 33//75 119//62 
f 119//62 82//78 83//79 
f 119//62 84//80 85//81 
f 119//62 86//82 84//80 
f 119//62 81//77 87//83 
f 87//83 86//82 119//62 
f 85//81 82//78 119//62 
f 88//84 89//85 90//86 
f 88//84 91//87 89//85 
f 88//84 92//88 93//89 
f 93//89 91//87 88//84 
f 90//86 94//90 88//84 
f 120//63 95//91 96//92 
f 96//92 74//64 120//63 
f 96//92 92//88 74//64 
f 94//90 97//93 98//94 
f 94//90 99//95 97//93 
f 94//90 100//96 99//95 
f 94//90 101//97 100//96 
f 94//90 102//98 101//97 
f 94//90 103//99 102//98 
f 94//90 104//100 105//101 
f 94//90 106//102 104//100 
f 94//90 107//103 106//102 
f 94//90 108//104 107//103 
f 94//90 109//105 108//104 
f 94//90 110//106 109//105 
f 105//101 103//99 94//90 
f 94//90 90//86 111//107 
f 111//107 110//106 94//90 
f 98//94 112//108 94//90 
f 88//84 74//64 92//88 
f 95//91 120//63 83//79 
f 83//79 120//63 119//62 
f 81//77 119//62 33//75 
f 38//74 35//60 118//59 
f 39//73 38//74 121//67 
f 122//68 121//67 118//59 
f 122//68 117//55 114//51 
f 77//69 80//72 121//67 
f 76//66 73//52 113//50 
f 74//64 75//65 119//62 
f 34//61 20//109 19//58 
f 35//60 34//61 115//53 
f 116//54 115//53 19//58 
f 24//56 25//48 114//51 
f 117//55 118//59 115//53 
f 73//52 78//70 114//51 
f 113//50 114//51 25//48 
o mesh3
f 123//110 29//110 15//111 
f 124//111 15//111 14//112 
f 125//112 14//112 18//113 
f 126//113 18//113 17//114 
f 127//114 17//114 16//115 
f 128//115 16//115 6//116 
f 129//116 6//116 4//117 
f 130//117 4//117 3//118 
f 131//118 3//118 2//119 
f 132//119 2//119 1//120 
f 133//120 1//120 5//121 
f 134//121 5//121 9//122 
f 135//122 9//122 10//123 
f 136//123 10//123 8//124 
f 137//124 8//124 7//125 
f 138//125 7//125 12//126 
f 139//126 12//126 11//127 
f 140//127 11//127 13//128 
f 141//128 13//128 58//129 
f 13//128 60//130 58//129 
f 13//128 28//131 60//130 
f 142//132 56//133 55//134 
f 142//132 58//129 57//135 
f 57//135 56//133 142//132 
f 143//136 46//137 47//138 
f 143//136 55//134 59//139 
f 59//139 61//140 143//136 
f 61//140 46//137 143//136 
f 144//141 49//142 48//143 
f 144//141 47//138 49//142 
f 145//144 51//145 50//146 
f 145//144 48//143 51//145 
f 146//147 50//146 54//148 
f 54//148 53//149 146//147 
f 147//150 101//151 102//152 
f 147//150 100//153 101//151 
f 147//150 99//154 100//153 
f 147//150 97//155 99//154 
f 147//150 98//156 97//155 
f 147//150 112//157 98//156 
f 148//158 108//159 109//160 
f 148//158 107//161 108//159 
f 148//158 106//162 107//161 
f 148//158 104//163 106//162 
f 148//158 105//164 104//163 
f 148//158 147//150 103//165 
f 103//165 105//164 148//158 
f 149//166 89//167 91//168 
f 149//166 111//169 90//170 
f 90//170 89//167 149//166 
f 149//166 148//158 110//171 
f 110//171 111//169 149//166 
f 91//168 93//172 149//166 
f 150//173 96//174 95//175 
f 95//175 83//176 150//173 
f 150//173 149//166 92//177 
f 92//177 96//174 150//173 
f 151//178 150//173 82//179 
f 82//179 85//180 151//178 
f 85//180 84//181 151//178 
f 29//110 87//182 81//183 
f 123//110 151//178 86//184 
f 86//184 29//110 123//110 
f 86//184 87//182 29//110 
f 81//183 30//185 29//110 
f 84//181 86//184 151//178 
f 83//176 82//179 150//173 
f 93//172 92//177 149//166 
f 109//160 110//171 148//158 
f 102//152 103//165 147//150 
f 53//149 52//186 146//147 
f 50//146 146//147 145//144 
f 48//143 145//144 144//141 
f 47//138 144//141 143//136 
f 55//134 143//136 142//132 
f 58//129 142//132 141//128 
f 13//128 141//128 140//127 
f 11//127 140//127 139//126 
f 12//126 139//126 138//125 
f 7//125 138//125 137//124 
f 8//124 137//124 136//123 
f 10//123 136//123 135//122 
f 9//122 135//122 134//121 
f 5//121 134//121 133//120 
f 1//120 133//120 132//119 
f 2//119 132//119 131//118 
f 3//118 131//118 130//117 
f 4//117 130//117 129//116 
f 6//116 129//116 128//115 
f 16//115 128//115 127//114 
f 17//114 127//114 126//113 
f 18//113 126//113 125//112 
f 14//112 125//112 124//111 
f 15//111 124//111 123//110 
o mesh4
f 133//187 130//187 131//187 
f 146//187 148//187 149//187 
f 129//187 140//187 141//187 
f 129//187 136//187 137//187 
f 131//187 132//187 133//187 
f 146//187 150//187 151//187 
f 146//187 147//187 148//187 
f 129//187 143//187 144//187 
f 141//187 142//187 129//187 
f 129//187 138//187 139//187 
f 129//187 135//187 136//187 
f 133//187 134//187 130//187 
f 146//187 123//187 124//187 
f 149//187 150//187 146//187 
f 142//187 143//187 129//187 
f 137//187 138//187 129//187 
f 135//187 129//187 130//187 
f 146//187 126//187 127//187 
f 151//187 123//187 146//187 
f 144//187 145//187 129//187 
f 134//187 135//187 130//187 
f 127//187 128//187 146//187 
f 124//187 125//187 146//187 
f 139//187 140//187 129//187 
f 125//187 126//187 146//187 
f 80//187 77//187 42//187 
f 128//187 129//187 146//187 
f 62//187 77//187 79//187 
f 77//187 62//187 42//187 
f 146//187 112//187 147//187 
f 45//187 74//187 88//187 
f 74//187 44//187 37//187 
f 73//187 43//187 40//187 
f 79//187 40//187 62//187 
f 42//187 41//187 80//187 
f 145//187 146//187 129//187 
f 88//187 52//187 45//187 
f 74//187 45//187 44//187 
f 73//187 36//187 43//187 
f 41//187 39//187 80//187 
f 37//187 36//187 73//187 
f 52//187 94//187 112//187 
f 37//187 75//187 74//187 
f 79//187 78//187 40//187 
f 73//187 76//187 37//187 
f 88//187 94//187 52//187 
f 76//187 75//187 37//187 
f 40//187 78//187 73//187 
f 146//187 52//187 112//187 
