# Blender 3.5.0
# www.blender.org
mtllib Rudder.mtl
o mesh0.003
v -0.026274 3.316566 0.955901
v -0.034333 3.316565 0.955473
v -0.042392 3.316566 0.955901
v -0.050361 3.316567 0.957182
v -0.018305 3.316567 0.957182
v -0.058150 3.316570 0.959294
v 0.010913 3.316583 0.970367
v 0.004175 3.316578 0.965923
v -0.010516 3.316570 0.959294
v -0.002995 3.316573 0.962224
v 0.022796 3.316597 0.981257
v 0.017143 3.316589 0.975494
v 0.027808 3.316604 0.987580
v -0.085809 3.316589 0.975494
v -0.091462 3.316597 0.981257
v -0.065671 3.316573 0.962224
v -0.072841 3.316578 0.965923
v -0.079579 3.316583 0.970367
v -0.050736 3.317365 1.613472
v -0.034333 3.317588 1.796897
v -0.027822 3.317506 1.729545
v -0.002646 3.317155 1.440924
v 0.007676 3.317011 1.322592
v -0.073368 3.317057 1.360412
v -0.079030 3.316958 1.279156
v -0.066166 3.317155 1.440936
v 0.010584 3.316958 1.279168
v 0.029898 3.316608 0.990681
v -0.096474 3.316604 0.987580
v -0.098564 3.316608 0.990681
v 0.020697 3.316775 1.128107
v -0.089554 3.316775 1.128119
v -0.096202 3.316659 1.032725
vn -0.0000 1.0000 -0.0012
s 0
usemtl 0.647059_0.647059_0.647059_0.000000_0.001
f 1//1 2//1 3//1
f 4//1 5//1 1//1
f 6//1 7//1 8//1
f 4//1 9//1 5//1
f 8//1 10//1 6//1
f 6//1 11//1 12//1
f 13//1 14//1 15//1
f 13//1 16//1 17//1
f 3//1 4//1 1//1
f 12//1 7//1 6//1
f 13//1 18//1 14//1
f 13//1 6//1 16//1
f 10//1 9//1 6//1
f 17//1 18//1 13//1
f 6//1 13//1 11//1
f 19//1 20//1 21//1
f 22//1 23//1 24//1
f 25//1 24//1 23//1
f 4//1 6//1 9//1
f 22//1 26//1 19//1
f 23//1 27//1 25//1
f 28//1 29//1 30//1
f 29//1 28//1 13//1
f 24//1 26//1 22//1
f 31//1 32//1 25//1
f 31//1 28//1 33//1
f 15//1 29//1 13//1
f 25//1 27//1 31//1
f 30//1 33//1 28//1
f 33//1 32//1 31//1
f 21//1 22//1 19//1
o mesh1.003
v -0.034333 3.317588 1.796897
v -0.027822 3.317506 1.729545
v -0.002646 3.317155 1.440924
v 0.007676 3.317011 1.322592
v 0.010584 3.316958 1.279168
v 0.029898 3.316608 0.990681
v 0.020697 3.316775 1.128107
v -0.034333 2.829252 1.784269
v -0.034333 2.340916 1.771641
v 0.021541 1.363741 1.331863
v 0.029235 1.363637 1.245943
v -0.034333 1.852581 1.759026
v -0.034333 1.364245 1.746398
v 0.010186 1.363854 1.424742
v -0.017398 1.364106 1.632046
v -0.006119 1.364014 1.555868
v 0.021046 1.363748 1.337394
v 0.036060 1.363544 1.169729
v 0.036165 1.363541 1.167275
v 0.038080 2.126570 1.009426
v 0.038413 2.072807 1.010749
v 0.040406 1.745752 1.018960
v 0.040292 1.770363 1.018185
v 0.041546 1.489822 1.027255
v 0.041465 1.517276 1.026147
v 0.041856 1.363379 1.034037
v 0.041849 1.371667 1.032977
v 0.041765 1.415820 1.030262
v 0.035616 2.481517 1.002683
v 0.034957 2.576479 1.000883
v 0.033945 2.720660 0.998584
v 0.032025 3.003349 0.994834
v 0.036120 2.408972 1.004066
v 0.030034 3.296495 0.990950
v 0.036598 2.340024 1.005370
v -0.002264 1.363976 1.524872
v -0.016992 2.829050 1.618191
v 0.021637 2.340258 1.230022
v -0.016992 1.852421 1.627460
v -0.001883 2.828860 1.461978
v 0.010993 2.340406 1.352016
v -0.016992 2.340735 1.622826
v -0.001883 2.340566 1.482959
v -0.001883 1.852271 1.503940
v 0.030048 2.340121 1.116963
v 0.036227 2.339994 1.012854
vn 0.9950 0.0009 0.1002
vn 0.9942 -0.0028 0.1073
vn 0.9928 -0.0031 0.1196
vn 0.9967 0.0084 0.0808
vn 0.9943 0.0111 0.1060
vn 0.9960 0.0117 0.0883
vn 0.9920 0.0012 0.1262
vn 0.9909 -0.0035 0.1349
vn 0.9879 -0.0040 0.1547
vn 0.9970 0.0051 0.0774
vn 0.9965 0.0036 0.0834
vn 0.9957 0.0040 0.0921
vn 0.9957 0.0069 0.0926
vn 0.9972 0.0056 0.0749
vn 0.9955 -0.0012 0.0951
vn 0.9950 0.0010 0.1002
vn 0.9950 0.0010 0.1001
vn 0.9937 0.0011 0.1117
vn 0.9947 0.0044 0.1028
vn 0.9972 0.0056 0.0750
vn 0.9926 0.0090 0.1209
vn 0.9932 0.0050 0.1163
vn 0.9894 0.0013 0.1451
vn 0.9905 0.0046 0.1373
vn 0.9905 0.0046 0.1372
vn 0.9942 0.0110 0.1069
vn 0.9943 0.0110 0.1059
vn 0.9926 0.0090 0.1210
vn 0.9977 0.0089 0.0670
vn 0.9976 0.0107 0.0679
vn 0.9977 0.0106 0.0671
vn 0.9960 0.0116 0.0883
vn 0.9987 0.0079 0.0501
vn 0.9989 0.0077 0.0458
vn 0.9977 0.0106 0.0672
vn 0.9990 0.0076 0.0447
vn 0.9994 0.0063 0.0344
vn 0.9994 0.0065 0.0354
vn 0.9998 0.0040 0.0204
vn 0.9997 0.0044 0.0223
vn 0.9999 0.0023 0.0115
vn 0.9999 0.0024 0.0118
vn 0.9999 0.0030 0.0150
vn 0.9987 0.0079 0.0510
vn 0.9986 0.0079 0.0518
vn 0.9986 0.0078 0.0528
vn 0.9985 0.0075 0.0539
vn 0.9987 0.0080 0.0507
vn 0.9987 0.0079 0.0499
vn 0.9978 0.0068 0.0652
vn 0.9977 0.0089 0.0671
vn 0.9985 0.0072 0.0542
vn 0.9978 0.0068 0.0653
vn 0.9985 0.0071 0.0543
vn 0.9988 0.0079 0.0489
vn 0.9988 0.0079 0.0491
vn 0.9987 0.0080 0.0506
vn 0.9987 0.0080 0.0508
vn 0.9910 0.0057 0.1338
vn 0.9910 0.0058 0.1338
vn 0.9955 -0.0013 0.0951
vn 0.9952 -0.0025 0.0973
vn 0.9894 0.0014 0.1450
vn 0.9928 -0.0031 0.1195
s 0
usemtl 0.647059_0.647059_0.647059_0.000000_0.001
f 70//2 41//3 42//4
f 71//5 43//6 44//7
f 72//8 45//9 46//10
f 37//11 36//12 73//13
f 73//13 74//14 37//11
f 74//14 38//15 37//11
f 36//12 35//16 70//2
f 35//16 41//3 70//17
f 70//2 73//13 36//12
f 70//18 75//19 76//20
f 38//21 74//14 71//5
f 47//22 74//14 77//23
f 74//14 76//20 77//23
f 75//19 42//4 45//9
f 72//8 48//24 49//25
f 49//26 77//23 72//8
f 75//19 72//8 77//23
f 74//14 50//27 43//28
f 74//14 47//29 50//27
f 78//30 51//31 52//32
f 78//30 44//33 51//31
f 79//34 52//32 53//35
f 52//36 54//37 53//35
f 52//36 55//38 56//39
f 52//36 57//40 58//41
f 58//41 55//38 52//36
f 56//39 54//37 52//36
f 52//36 59//42 60//43
f 60//43 61//44 52//36
f 61//44 57//40 52//32
f 78//30 62//45 63//46
f 63//46 64//47 78//30
f 64//47 65//48 78//30
f 78//30 79//49 66//50
f 66//50 62//45 78//30
f 40//51 71//5 78//30
f 78//52 67//53 40//54
f 67//53 39//55 40//54
f 65//48 67//53 78//30
f 66//34 79//49 68//56
f 53//35 68//57 79//58
f 52//36 79//59 78//30
f 43//28 71//5 74//14
f 77//23 76//20 75//19
f 49//25 69//60 77//23
f 45//9 72//8 75//19
f 77//23 69//61 47//22
f 71//5 40//54 38//15
f 76//20 73//13 70//2
f 35//62 34//63 41//3
f 73//13 76//20 74//14
f 46//10 48//64 72//8
f 44//7 78//30 71//5
f 42//65 75//19 70//17
o mesh2.003
v -0.050736 3.317365 1.613472
v -0.034333 3.317588 1.796897
v -0.073368 3.317057 1.360412
v -0.079030 3.316958 1.279156
v -0.066166 3.317155 1.440936
v -0.098564 3.316608 0.990681
v -0.089554 3.316775 1.128119
v -0.096202 3.316659 1.032725
v -0.034333 2.829252 1.784269
v -0.034333 2.340916 1.771641
v -0.034333 1.852581 1.759026
v -0.034333 1.364245 1.746398
v -0.089488 1.363741 1.331778
v -0.104043 1.363541 1.167214
v -0.098435 1.363637 1.246005
v -0.097392 1.363655 1.260654
v -0.066056 1.363976 1.524811
v -0.079153 1.363854 1.424778
v -0.074912 1.363901 1.462953
v -0.050716 1.364106 1.631960
v -0.098711 3.294301 0.990952
v -0.104300 2.479233 1.002686
v -0.104804 2.406713 1.004056
v -0.103318 2.619910 1.000171
v -0.103775 2.554809 1.001239
v -0.100711 2.998560 0.994828
v -0.099570 3.164244 0.992490
v -0.108360 1.363468 1.106577
v -0.108611 1.831657 1.016511
v -0.108836 1.791946 1.017597
v -0.108243 1.893611 1.014898
v -0.107114 2.069792 1.010741
v -0.107838 1.959019 1.013268
v -0.108686 1.363454 1.095639
v -0.105267 2.340018 1.005321
v -0.106641 2.142129 1.009090
v -0.110513 1.372766 1.032878
v -0.110522 1.364453 1.033841
v -0.110486 1.389538 1.031662
v -0.110443 1.410620 1.030513
v -0.110383 1.435779 1.029347
v -0.110302 1.464882 1.028127
v -0.110231 1.487441 1.027258
v -0.110068 1.534574 1.025528
v -0.110198 1.497842 1.026854
v -0.109909 1.575030 1.024136
v -0.109719 1.619160 1.022690
v -0.109495 1.666928 1.021204
v -0.109237 1.718285 1.019664
v -0.109102 1.743360 1.018950
v -0.108942 1.773207 1.018108
v -0.110522 1.363379 1.034037
v -0.090302 2.340258 1.230022
v -0.079659 2.340406 1.352016
v -0.051674 2.829050 1.618191
v -0.066783 2.828860 1.461978
v -0.066783 2.340566 1.482959
v -0.051674 2.340735 1.622826
v -0.098714 2.340121 1.116963
v -0.104893 2.339994 1.012854
v -0.051674 1.852421 1.627460
v -0.066783 1.852271 1.503940
vn -0.9972 0.0056 0.0750
vn -0.9978 0.0068 0.0653
vn -0.9967 0.0084 0.0808
vn -0.9957 0.0069 0.0926
vn -0.9943 0.0110 0.1059
vn -0.9950 0.0009 0.1002
vn -0.9957 0.0040 0.0921
vn -0.9947 0.0044 0.1028
vn -0.9968 0.0047 0.0794
vn -0.9957 0.0039 0.0921
vn -0.9965 0.0036 0.0834
vn -0.9959 0.0009 0.0908
vn -0.9950 0.0010 0.1002
vn -0.9937 0.0011 0.1117
vn -0.9928 -0.0031 0.1196
vn -0.9942 -0.0028 0.1073
vn -0.9977 0.0089 0.0670
vn -0.9987 0.0080 0.0507
vn -0.9977 0.0106 0.0672
vn -0.9960 0.0117 0.0883
vn -0.9957 0.0117 0.0916
vn -0.9920 0.0012 0.1262
vn -0.9932 0.0050 0.1163
vn -0.9910 0.0057 0.1338
vn -0.9926 0.0090 0.1209
vn -0.9920 0.0079 0.1262
vn -0.9932 0.0050 0.1162
vn -0.9920 0.0079 0.1261
vn -0.9894 0.0013 0.1449
vn -0.9880 -0.0040 0.1547
vn -0.9909 -0.0035 0.1349
vn -0.9983 0.0071 0.0578
vn -0.9985 0.0071 0.0543
vn -0.9985 0.0072 0.0543
vn -0.9983 0.0071 0.0579
vn -0.9987 0.0079 0.0510
vn -0.9987 0.0079 0.0499
vn -0.9986 0.0079 0.0521
vn -0.9986 0.0079 0.0516
vn -0.9985 0.0075 0.0539
vn -0.9985 0.0072 0.0542
vn -0.9985 0.0074 0.0541
vn -0.9985 0.0073 0.0542
vn -0.9986 0.0079 0.0517
vn -0.9989 0.0082 0.0460
vn -0.9993 0.0069 0.0378
vn -0.9993 0.0066 0.0362
vn -0.9992 0.0071 0.0399
vn -0.9993 0.0068 0.0377
vn -0.9990 0.0076 0.0445
vn -0.9991 0.0073 0.0418
vn -0.9992 0.0070 0.0397
vn -0.9991 0.0076 0.0415
vn -0.9989 0.0082 0.0459
vn -0.9987 0.0080 0.0506
vn -0.9988 0.0079 0.0490
vn -0.9989 0.0077 0.0461
vn -0.9987 0.0080 0.0508
vn -0.9990 0.0076 0.0446
vn -0.9977 0.0106 0.0671
vn -0.9999 0.0024 0.0119
vn -0.9999 0.0023 0.0115
vn -0.9999 0.0026 0.0130
vn -0.9999 0.0029 0.0146
vn -0.9999 0.0033 0.0165
vn -0.9998 0.0037 0.0187
vn -0.9998 0.0040 0.0203
vn -0.9997 0.0046 0.0234
vn -0.9998 0.0041 0.0210
vn -0.9997 0.0050 0.0258
vn -0.9996 0.0054 0.0284
vn -0.9997 0.0050 0.0259
vn -0.9995 0.0058 0.0308
vn -0.9996 0.0054 0.0283
vn -0.9994 0.0062 0.0332
vn -0.9994 0.0063 0.0343
vn -0.9993 0.0066 0.0363
vn -0.9993 0.0065 0.0355
vn -0.9988 0.0079 0.0491
vn -0.9987 0.0079 0.0497
vn -0.9879 -0.0040 0.1547
vn -0.9894 0.0014 0.1450
vn -0.9943 0.0111 0.1059
vn -0.9952 -0.0025 0.0973
s 0
usemtl 0.647059_0.647059_0.647059_0.000000_0.001
f 83//66 86//67 132//68
f 133//69 132//68 92//70
f 134//71 135//72 136//73
f 82//74 133//69 135//72
f 133//69 136//73 135//72
f 135//75 84//76 82//74
f 80//77 84//76 135//72
f 134//78 137//79 89//80
f 80//77 134//78 88//81
f 138//82 139//83 93//84
f 132//68 138//82 94//85
f 94//85 95//86 132//68
f 140//87 141//88 96//89
f 97//90 98//91 141//92
f 141//88 133//69 97//90
f 98//93 96//89 141//88
f 137//79 136//73 141//92
f 140//87 99//94 91//95
f 137//79 140//87 90//96
f 87//97 85//98 100//99
f 138//82 132//68 86//67
f 86//67 87//100 138//82
f 138//82 101//101 102//102
f 138//82 103//103 104//104
f 138//82 105//105 103//103
f 138//82 100//106 106//107
f 106//108 105//105 138//82
f 104//109 101//101 138//82
f 107//110 108//111 109//112
f 107//110 110//113 108//114
f 107//110 111//115 112//116
f 112//116 110//117 107//110
f 109//112 113//118 107//119
f 139//120 114//121 115//122
f 115//122 93//84 139//123
f 115//122 111//124 93//125
f 113//118 116//126 117//127
f 113//118 118//128 116//126
f 113//118 119//129 118//128
f 113//118 120//130 119//129
f 113//118 121//131 120//130
f 113//118 122//132 121//131
f 113//118 123//133 124//134
f 113//118 125//135 123//133
f 113//118 126//136 125//137
f 113//118 127//138 126//139
f 113//118 128//140 127//138
f 113//118 129//141 128//140
f 124//134 122//132 113//118
f 113//118 109//142 130//143
f 130//143 129//141 113//118
f 117//127 131//127 113//118
f 107//110 93//84 111//124
f 114//144 139//120 102//145
f 102//102 139//83 138//82
f 100//99 138//82 87//100
f 90//96 89//80 137//79
f 91//146 90//96 140//87
f 141//88 140//87 137//79
f 141//88 136//73 133//69
f 96//89 99//147 140//87
f 95//86 92//148 132//68
f 93//84 94//85 138//82
f 88//81 81//149 80//77
f 89//80 88//81 134//71
f 135//75 134//71 80//77
f 82//74 83//66 133//69
f 136//73 137//79 134//78
f 92//70 97//90 133//69
f 132//68 133//69 83//66
o mesh3.003
v -0.026274 3.316566 0.955901
v -0.034333 3.316565 0.955473
v -0.042392 3.316566 0.955901
v -0.050361 3.316567 0.957182
v -0.018305 3.316567 0.957182
v -0.058150 3.316570 0.959294
v 0.010913 3.316583 0.970367
v 0.004175 3.316578 0.965923
v -0.010516 3.316570 0.959294
v -0.002995 3.316573 0.962224
v 0.022796 3.316597 0.981257
v 0.017143 3.316589 0.975494
v 0.027808 3.316604 0.987580
v -0.085809 3.316589 0.975494
v -0.091462 3.316597 0.981257
v -0.065671 3.316573 0.962224
v -0.072841 3.316578 0.965923
v -0.079579 3.316583 0.970367
v 0.029898 3.316608 0.990681
v -0.096474 3.316604 0.987580
v -0.098564 3.316608 0.990681
v 0.038080 2.126570 1.009426
v 0.038413 2.072807 1.010749
v 0.040406 1.745752 1.018960
v 0.040292 1.770363 1.018185
v 0.041546 1.489822 1.027255
v 0.041465 1.517276 1.026147
v 0.041856 1.363379 1.034037
v 0.041849 1.371667 1.032977
v 0.041765 1.415820 1.030262
v 0.035616 2.481517 1.002683
v 0.034957 2.576479 1.000883
v 0.033945 2.720660 0.998584
v 0.032025 3.003349 0.994834
v 0.036120 2.408972 1.004066
v 0.030034 3.296495 0.990950
v 0.036598 2.340024 1.005370
v -0.098711 3.294301 0.990952
v -0.104300 2.479233 1.002686
v -0.104804 2.406713 1.004056
v -0.103318 2.619910 1.000171
v -0.103775 2.554809 1.001239
v -0.100711 2.998560 0.994828
v -0.099570 3.164244 0.992490
v -0.108611 1.831657 1.016511
v -0.108836 1.791946 1.017597
v -0.108243 1.893611 1.014898
v -0.107114 2.069792 1.010741
v -0.107838 1.959019 1.013268
v -0.105267 2.340018 1.005321
v -0.106641 2.142129 1.009090
v -0.110513 1.372766 1.032878
v -0.110522 1.364453 1.033841
v -0.110486 1.389538 1.031662
v -0.110443 1.410620 1.030513
v -0.110383 1.435779 1.029347
v -0.110302 1.464882 1.028127
v -0.110231 1.487441 1.027258
v -0.110068 1.534574 1.025528
v -0.110198 1.497842 1.026854
v -0.109909 1.575030 1.024136
v -0.109719 1.619160 1.022690
v -0.109495 1.666928 1.021204
v -0.109237 1.718285 1.019664
v -0.109102 1.743360 1.018950
v -0.108942 1.773207 1.018108
v -0.110522 1.363379 1.034037
v -0.096474 1.363326 0.989954
v -0.091462 1.363318 0.983630
v -0.085809 1.363311 0.977868
v -0.079579 1.363305 0.972741
v -0.072841 1.363299 0.968297
v -0.065671 1.363295 0.964598
v -0.058150 1.363292 0.961668
v -0.050361 1.363289 0.959556
v -0.042392 1.363287 0.958274
v -0.034333 1.363287 0.957847
v -0.026274 1.363287 0.958274
v -0.018305 1.363289 0.959556
v -0.010516 1.363292 0.961668
v -0.002995 1.363295 0.964598
v 0.004175 1.363299 0.968297
v 0.010913 1.363305 0.972741
v 0.017143 1.363311 0.977868
v 0.022796 1.363318 0.983630
v 0.027808 1.363326 0.989954
v 0.032122 1.363334 0.996779
v 0.035691 1.363343 1.004018
v 0.038474 1.363352 1.011587
v 0.040440 1.363362 1.019412
v 0.041567 1.363371 1.027408
v -0.110233 1.363371 1.027408
v -0.109106 1.363362 1.019412
v -0.107140 1.363352 1.011587
v -0.104357 1.363343 1.004018
v -0.100788 1.363334 0.996779
vn -0.8156 -0.0007 -0.5786
vn -0.7498 -0.0008 -0.6616
vn -0.6756 -0.0009 -0.7372
vn -0.5939 -0.0010 -0.8046
vn -0.5054 -0.0011 -0.8629
vn -0.4113 -0.0011 -0.9115
vn -0.3126 -0.0012 -0.9499
vn -0.2104 -0.0012 -0.9776
vn -0.1058 -0.0012 -0.9944
vn -0.0000 -0.0012 -1.0000
vn 0.1058 -0.0012 -0.9944
vn 0.2104 -0.0012 -0.9776
vn 0.3126 -0.0012 -0.9499
vn 0.4113 -0.0011 -0.9115
vn 0.5054 -0.0011 -0.8629
vn 0.5939 -0.0010 -0.8046
vn 0.6757 -0.0009 -0.7372
vn 0.6756 -0.0009 -0.7372
vn 0.7498 -0.0008 -0.6616
vn 0.8156 -0.0007 -0.5786
vn 0.8722 -0.0006 -0.4891
vn 0.8450 -0.0007 -0.5348
vn 0.8723 -0.0006 -0.4891
vn 0.8430 -0.0007 -0.5378
vn 0.9095 -0.0005 -0.4158
vn 0.9191 -0.0005 -0.3941
vn 0.8723 -0.0006 -0.4890
vn 0.8962 -0.0005 -0.4437
vn 0.9094 -0.0005 -0.4158
vn 0.9504 -0.0004 -0.3109
vn 0.9556 -0.0004 -0.2947
vn 0.9261 -0.0005 -0.3773
vn 0.9324 -0.0004 -0.3614
vn 0.9325 -0.0004 -0.3612
vn 0.9556 -0.0004 -0.2946
vn 0.9795 -0.0002 -0.2016
vn 0.9814 -0.0002 -0.1919
vn 0.9949 -0.0001 -0.1012
vn 0.9962 -0.0001 -0.0870
vn 0.9988 -0.0001 -0.0488
vn 0.9988 -0.0002 -0.0488
vn 0.9999 -0.0000 -0.0138
vn -0.9962 -0.0001 -0.0870
vn -0.9982 -0.0001 -0.0604
vn -0.9971 -0.0001 -0.0759
vn -0.9990 -0.0001 -0.0455
vn -0.9982 -0.0000 -0.0604
vn -0.9995 -0.0000 -0.0307
vn -0.9999 -0.0000 -0.0151
vn -1.0000 -0.0000 -0.0026
vn -1.0000 -0.0000 -0.0000
vn -0.9814 -0.0002 -0.1919
vn -0.9865 -0.0002 -0.1636
vn -0.9831 -0.0002 -0.1829
vn -0.9895 -0.0002 -0.1448
vn -0.9920 -0.0002 -0.1266
vn -0.9940 -0.0001 -0.1090
vn -0.9957 -0.0001 -0.0921
vn -0.9556 -0.0004 -0.2947
vn -0.9749 -0.0003 -0.2226
vn -0.9701 -0.0003 -0.2427
vn -0.9556 -0.0004 -0.2946
vn -0.9793 -0.0002 -0.2026
vn -0.9779 -0.0003 -0.2090
vn -0.9556 -0.0003 -0.2946
vn -0.9701 -0.0003 -0.2428
vn -0.9648 -0.0003 -0.2631
vn -0.9191 -0.0005 -0.3941
vn -0.9491 -0.0004 -0.3151
vn -0.9323 -0.0004 -0.3618
vn -0.9323 -0.0004 -0.3617
vn -0.9261 -0.0005 -0.3773
vn -0.8722 -0.0006 -0.4891
vn -0.9114 -0.0005 -0.4114
vn -0.9115 -0.0005 -0.4114
vn -0.9054 -0.0005 -0.4245
vn -0.8563 -0.0006 -0.5165
vn -0.8450 -0.0006 -0.5347
vn -0.8563 -0.0006 -0.5166
vn -0.8450 -0.0007 -0.5348
vn -0.8431 -0.0007 -0.5378
vn -0.9814 -0.0002 -0.1920
vn 1.0000 -0.0000 -0.0000
vn 0.9191 -0.0005 -0.3940
vn 0.5054 -0.0010 -0.8629
vn -0.5054 -0.0010 -0.8629
vn -0.6757 -0.0009 -0.7372
s 0
usemtl 0.647059_0.647059_0.647059_0.000000_0.001
f 209//150 161//150 156//151
f 210//151 156//151 155//152
f 211//152 155//152 159//153
f 212//153 159//153 158//154
f 213//154 158//154 157//155
f 214//155 157//155 147//156
f 215//156 147//156 145//157
f 216//157 145//157 144//158
f 217//158 144//158 143//159
f 218//159 143//159 142//160
f 219//160 142//160 146//161
f 220//161 146//161 150//162
f 221//162 150//162 151//163
f 222//163 151//163 149//164
f 223//164 149//164 148//165
f 224//165 148//165 153//166
f 225//167 153//167 152//168
f 226//168 152//168 154//169
f 227//169 154//169 175//170
f 154//169 177//171 175//172
f 154//169 160//173 177//171
f 228//170 173//174 172//175
f 228//176 175//176 174//177
f 174//177 173//178 228//170
f 229//175 163//179 164//180
f 229//175 172//175 176//181
f 176//181 178//182 229//175
f 178//183 163//179 229//175
f 230//184 166//185 165//186
f 230//180 164//180 166//185
f 231//186 168//187 167//188
f 231//186 165//186 168//187
f 232//188 167//188 171//189
f 171//190 170//191 232//188
f 233//192 197//193 198//194
f 233//192 196//195 197//196
f 233//192 195//197 196//195
f 233//192 193//198 195//197
f 233//192 194//199 193//198
f 233//192 208//200 194//199
f 234//201 204//202 205//203
f 234//201 203//204 204//202
f 234//201 202//205 203//204
f 234//201 200//206 202//205
f 234//201 201//207 200//206
f 234//201 233//192 199//192
f 199//192 201//207 234//201
f 235//208 186//209 188//210
f 235//211 207//212 187//213
f 187//213 186//209 235//208
f 235//214 234//201 206//201
f 206//201 207//212 235//211
f 188//215 190//216 235//211
f 236//217 192//218 191//219
f 191//220 181//221 236//217
f 236//217 235//211 189//211
f 189//211 192//218 236//217
f 237//222 236//217 180//217
f 180//217 183//223 237//222
f 183//224 182//225 237//222
f 161//150 185//226 179//227
f 209//150 237//222 184//222
f 184//222 161//150 209//150
f 184//222 185//228 161//150
f 179//229 162//230 161//150
f 182//225 184//222 237//222
f 181//221 180//217 236//217
f 190//216 189//211 235//211
f 205//203 206//231 234//231
f 198//194 199//192 233//192
f 170//191 169//232 232//188
f 167//188 232//188 231//186
f 165//186 231//186 230//184
f 164//184 230//184 229//233
f 172//175 229//175 228//170
f 175//170 228//170 227//169
f 154//169 227//169 226//168
f 152//168 226//168 225//167
f 153//167 225//167 224//165
f 148//165 224//165 223//234
f 149//234 223//234 222//163
f 151//163 222//163 221//162
f 150//162 221//162 220//161
f 146//161 220//161 219//160
f 142//160 219//160 218//159
f 143//159 218//159 217//158
f 144//158 217//158 216//157
f 145//157 216//157 215//156
f 147//156 215//156 214//155
f 157//155 214//155 213//235
f 158//235 213//235 212//153
f 159//153 212//153 211//236
f 155//152 211//152 210//151
f 156//151 210//151 209//150
o mesh4.003
v 0.021541 1.363741 1.331863
v 0.029235 1.363637 1.245943
v -0.034333 1.364245 1.746398
v 0.010186 1.363854 1.424742
v -0.017398 1.364106 1.632046
v -0.006119 1.364014 1.555868
v 0.021046 1.363748 1.337394
v 0.036060 1.363544 1.169729
v 0.036165 1.363541 1.167275
v 0.041856 1.363379 1.034037
v -0.002264 1.363976 1.524872
v -0.089488 1.363741 1.331778
v -0.104043 1.363541 1.167214
v -0.098435 1.363637 1.246005
v -0.097392 1.363655 1.260654
v -0.066056 1.363976 1.524811
v -0.079153 1.363854 1.424778
v -0.074912 1.363901 1.462953
v -0.050716 1.364106 1.631960
v -0.108360 1.363468 1.106577
v -0.108686 1.363454 1.095639
v -0.110522 1.363379 1.034037
v -0.096474 1.363326 0.989954
v -0.091462 1.363318 0.983630
v -0.085809 1.363311 0.977868
v -0.079579 1.363305 0.972741
v -0.072841 1.363299 0.968297
v -0.065671 1.363295 0.964598
v -0.058150 1.363292 0.961668
v -0.050361 1.363289 0.959556
v -0.042392 1.363287 0.958274
v -0.034333 1.363287 0.957847
v -0.026274 1.363287 0.958274
v -0.018305 1.363289 0.959556
v -0.010516 1.363292 0.961668
v -0.002995 1.363295 0.964598
v 0.004175 1.363299 0.968297
v 0.010913 1.363305 0.972741
v 0.017143 1.363311 0.977868
v 0.022796 1.363318 0.983630
v 0.027808 1.363326 0.989954
v 0.032122 1.363334 0.996779
v 0.035691 1.363343 1.004018
v 0.038474 1.363352 1.011587
v 0.040440 1.363362 1.019412
v 0.041567 1.363371 1.027408
v -0.110233 1.363371 1.027408
v -0.109106 1.363362 1.019412
v -0.107140 1.363352 1.011587
v -0.104357 1.363343 1.004018
v -0.100788 1.363334 0.996779
vn -0.0000 -1.0000 0.0012
s 0
usemtl 0.647059_0.647059_0.647059_0.000000_0.001
f 270//237 267//237 268//237
f 283//237 285//237 286//237
f 266//237 277//237 278//237
f 266//237 273//237 274//237
f 268//237 269//237 270//237
f 283//237 287//237 288//237
f 283//237 284//237 285//237
f 266//237 280//237 281//237
f 278//237 279//237 266//237
f 266//237 275//237 276//237
f 266//237 272//237 273//237
f 270//237 271//237 267//237
f 283//237 260//237 261//237
f 286//237 287//237 283//237
f 279//237 280//237 266//237
f 274//237 275//237 266//237
f 272//237 266//237 267//237
f 283//237 263//237 264//237
f 288//237 260//237 283//237
f 281//237 282//237 266//237
f 271//237 272//237 267//237
f 264//237 265//237 283//237
f 261//237 262//237 283//237
f 276//237 277//237 266//237
f 262//237 263//237 283//237
f 256//237 253//237 243//237
f 265//237 266//237 283//237
f 248//237 253//237 255//237
f 253//237 248//237 243//237
f 283//237 259//237 284//237
f 246//237 250//237 257//237
f 250//237 245//237 239//237
f 249//237 244//237 241//237
f 255//237 241//237 248//237
f 243//237 242//237 256//237
f 282//237 283//237 266//237
f 257//237 247//237 246//237
f 250//237 246//237 245//237
f 249//237 238//237 244//237
f 242//237 240//237 256//237
f 239//237 238//237 249//237
f 247//237 258//237 259//237
f 239//237 251//237 250//237
f 255//237 254//237 241//237
f 249//237 252//237 239//237
f 257//237 258//237 247//237
f 252//237 251//237 239//237
f 241//237 254//237 249//237
f 283//237 247//237 259//237
